<svg version="1.1" xmlns:xlink="http://www.w3.org/1999/xlink" xmlns="http://www.w3.org/2000/svg" width="24" height="24" viewBox="0 0 24 24"><defs id="defs8"><filter x="-.016" y="-.004" width="1.037" height="1.011" filterUnits="objectBoundingBox" id="filter-1"><feOffset dx="1" dy="2" in="SourceAlpha" result="shadowOffsetOuter1" id="feOffset1"/><feColorMatrix values="0 0 0 0 0.0862745098 0 0 0 0 0.0980392157 0 0 0 0 0.121568627 0 0 0 1 0" type="matrix" in="shadowOffsetOuter1" result="shadowMatrixOuter1" id="feColorMatrix1"/><feMerge id="feMerge2"><feMergeNode in="shadowMatrixOuter1" id="feMergeNode1"/><feMergeNode in="SourceGraphic" id="feMergeNode2"/></feMerge></filter><filter x="0" y="0" width="1.018" height="1" filterUnits="objectBoundingBox" id="filter-3"><feOffset dx="3" dy="0" in="SourceAlpha" result="shadowOffsetOuter1" id="feOffset2"/><feColorMatrix values="0 0 0 0 0.0862745098 0 0 0 0 0.0980392157 0 0 0 0 0.121568627 0 0 0 1 0" type="matrix" in="shadowOffsetOuter1" id="feColorMatrix2"/></filter><filter x="0" y="0" width="1.029" height="1" filterUnits="objectBoundingBox" id="filter-5"><feOffset dx="3" dy="0" in="SourceAlpha" result="shadowOffsetOuter1" id="feOffset3"/><feColorMatrix values="0 0 0 0 0.0862745098 0 0 0 0 0.0980392157 0 0 0 0 0.121568627 0 0 0 1 0" type="matrix" in="shadowOffsetOuter1" id="feColorMatrix3"/></filter><filter x="0" y="0" width="1.074" height="1" filterUnits="objectBoundingBox" id="filter-7"><feOffset dx="3" dy="0" in="SourceAlpha" result="shadowOffsetOuter1" id="feOffset4"/><feColorMatrix values="0 0 0 0 0.0862745098 0 0 0 0 0.0980392157 0 0 0 0 0.121568627 0 0 0 1 0" type="matrix" in="shadowOffsetOuter1" id="feColorMatrix4"/></filter><filter x="0" y="0" width="1.074" height="1" filterUnits="objectBoundingBox" id="filter-9"><feOffset dx="3" dy="0" in="SourceAlpha" result="shadowOffsetOuter1" id="feOffset5"/><feColorMatrix values="0 0 0 0 0.0862745098 0 0 0 0 0.0980392157 0 0 0 0 0.121568627 0 0 0 1 0" type="matrix" in="shadowOffsetOuter1" id="feColorMatrix5"/></filter><filter x="0" y="0" width="1.074" height="1" filterUnits="objectBoundingBox" id="filter-11"><feOffset dx="3" dy="0" in="SourceAlpha" result="shadowOffsetOuter1" id="feOffset6"/><feColorMatrix values="0 0 0 0 0.0862745098 0 0 0 0 0.0980392157 0 0 0 0 0.121568627 0 0 0 1 0" type="matrix" in="shadowOffsetOuter1" id="feColorMatrix6"/></filter><filter x="0" y="0" width="1.074" height="1" filterUnits="objectBoundingBox" id="filter-13"><feOffset dx="3" dy="0" in="SourceAlpha" result="shadowOffsetOuter1" id="feOffset7"/><feColorMatrix values="0 0 0 0 0.0862745098 0 0 0 0 0.0980392157 0 0 0 0 0.121568627 0 0 0 1 0" type="matrix" in="shadowOffsetOuter1" id="feColorMatrix7"/></filter><filter x="0" y="0" width="1.074" height="1" filterUnits="objectBoundingBox" id="filter-15"><feOffset dx="3" dy="0" in="SourceAlpha" result="shadowOffsetOuter1" id="feOffset8"/><feColorMatrix values="0 0 0 0 0.0862745098 0 0 0 0 0.0980392157 0 0 0 0 0.121568627 0 0 0 1 0" type="matrix" in="shadowOffsetOuter1" id="feColorMatrix8"/></filter><path d="M115.046 227.42c-.288-9.412-5.54-26.005-15.754-49.78 12.701 22.197 23.055 36.606 31.06 43.225 3.904-4.2 8.476-10.745 13.717-19.632-.823 10.293-1.2 18.15-1.132 23.571 11.982-1.911 36.938-13.244 74.87-33.998-34.201 22.454-55.58 38.572-64.138 48.354 6.9 3.38 17.468 8.013 31.702 13.897-16.783-3.263-28.94-4.679-36.474-4.249-.982 9.998 5.693 26.76 20.025 50.289-14.604-21.8-25.86-35.948-33.765-42.446-3.507 4.526-7.342 11.147-11.505 19.863-.09-10.252-.632-18.06-1.63-23.421-11.542 2.578-34.796 13.57-69.76 32.978 30.554-22.67 49.863-38.395 57.929-47.176-6.28-3.769-15.336-8.242-27.169-13.419 14.057 1.662 24.731 2.31 32.024 1.944z" id="path-2"/><path d="M257.299 35.072c-.178-5.692-3.872-15.94-11.083-30.746 8.844 13.012 15.855 21.237 21.033 24.676 1.993-2.51 4.228-5.864 6.704-10.062-.387 4.83-.614 8.794-.684 11.893 6.916-.477 22.37-6.594 46.36-18.352-23.984 14.19-37.498 24.04-40.542 29.55 4.237 2.124 11.054 5.127 20.45 9.011-9.594-1.865-16.749-2.756-21.463-2.673.463 6.755 4.221 17.153 11.274 31.192-8.955-13.497-15.88-22.321-20.775-26.472-2.21 2.806-4.633 6.968-7.267 12.483-.058-6.59-.418-11.55-1.08-14.877-7.143 1.635-21.523 8.567-43.143 20.798 18.712-13.634 30.848-23.269 36.409-28.905-3.903-2.4-9.688-5.277-17.354-8.63 9.6 1.134 16.655 1.506 21.161 1.114z" id="path-4"/><path d="M218 202.65c6.917 1.442 12.97.256 18.16-3.558 3.722-2.736 6.58-8.1 8.576-16.092-.624 7.07.225 12.92 2.548 17.548 2.207 4.399 5.887 7.576 11.04 9.533-6.424.546-11.209 2.325-14.352 5.337-4.483 4.294-7.324 9.822-8.525 16.582 1.777-8.627 1.258-15.31-1.56-20.05-2.998-5.044-8.294-8.143-15.887-9.3z" id="path-6"/><path d="M298 142.65c6.917 1.442 12.97.256 18.16-3.558 3.722-2.736 6.58-8.1 8.576-16.092-.624 7.07.225 12.92 2.548 17.548 2.207 4.399 5.887 7.576 11.04 9.533-6.424.546-11.209 2.325-14.352 5.337-4.483 4.294-7.324 9.822-8.525 16.582 1.777-8.627 1.258-15.31-1.56-20.05-2.998-5.044-8.294-8.143-15.887-9.3z" id="path-8"/><path d="M238 317.65c6.917 1.442 12.97.256 18.16-3.558 3.722-2.736 6.58-8.1 8.576-16.092-.624 7.07.225 12.92 2.548 17.548 2.207 4.399 5.887 7.576 11.04 9.533-6.424.546-11.209 2.325-14.352 5.337-4.483 4.294-7.324 9.822-8.525 16.582 1.777-8.627 1.258-15.31-1.56-20.05-2.998-5.044-8.294-8.143-15.887-9.3z" id="path-10"/><path d="M85 366.65c6.917 1.442 12.97.256 18.16-3.558 3.722-2.736 6.58-8.1 8.576-16.092-.624 7.07.225 12.92 2.548 17.548 2.207 4.399 5.887 7.576 11.04 9.533-6.424.546-11.209 2.325-14.352 5.337-4.483 4.294-7.324 9.822-8.525 16.582 1.777-8.627 1.258-15.31-1.56-20.05-2.998-5.044-8.294-8.143-15.887-9.3Z" id="path-12"/><path d="M0 266.65c6.917 1.442 12.97.256 18.16-3.558 3.722-2.736 6.58-8.1 8.576-16.092-.624 7.07.225 12.92 2.548 17.548 2.207 4.399 5.887 7.576 11.04 9.533-6.424.546-11.209 2.325-14.352 5.337-4.483 4.294-7.324 9.822-8.525 16.582 1.777-8.627 1.258-15.31-1.56-20.05-2.998-5.044-8.294-8.143-15.887-9.3Z" id="path-14"/></defs><g id="cfn-lint-nolabel" stroke="none" stroke-width="1" fill="none" fill-rule="nonzero" transform="translate(2.783 4.14) scale(.02174)"><path d="M690 565H175c-89.47 0-162-72.53-162-162s72.53-162 162-162h.076a164.97 164.97 0 0 1-.076-5c0-89.47 72.53-162 162-162 66.232 0 123.18 39.746 148.295 96.688C498.901 166.98 513.22 165 528 165c71.37 0 131.962 46.153 153.556 110.242 2.794-.16 5.61-.242 8.444-.242 80.081 0 145 64.919 145 145s-64.919 145-145 145z" id="Combined-Shape" stroke="#16191f" stroke-width="6" fill="#4ac6d7"/><g id="Group-2" filter="url(#filter-1)" transform="rotate(17 294.346 1605.9)"><g id="Group" transform="translate(19)"><path d="M3.398 46.158v-.171C3.398 21.025 44.605.789 95.437.789s92.039 20.236 92.039 45.198c0 1.426-.134 2.836-.398 4.229V333.78H3V46.158Z" id="path8" stroke="#16191f" stroke-width="6" fill="#f4db5c"/><path d="M130.934 7.725c33.223 7.69 51.036 20.478 53.44 38.36l2.704 287.696h-58.68l2.536-326.056Z" id="path9" fill="#f1ce1b"/><ellipse id="Oval" stroke="#16191f" stroke-width="6" fill="#e2a414" cx="94.572" cy="333.018" rx="94.539" ry="45.198"/></g><path d="M113.305 637.844a3.726 3.726 0 0 0-.183-.005c-11.8 0-22.61 10.854-20.077 29.584 2.533 18.73 6.021 29.454 19.927 29.454.112-.012.223-.027.333-.044.11.017.221.032.333.044 13.906 0 17.394-10.724 19.927-29.454 2.534-18.73-8.276-29.584-20.076-29.584-.062 0-.123.002-.184.005zm56.607-292.619c-9.82 14.446-16.302 33.52-19.445 57.225 0 38.1 16.846 62.867 13.616 171.08-.999 24.956-12.338 115.587-26.07 133.055-4.54 6.212-10.706 9.579-18.498 10.101v.06h-1.248c-.31.008-.625.012-.94.012v-.013h-7.124v.013c-.316 0-.63-.004-.941-.013h-1.252v-.059c-7.79-.523-13.955-3.89-18.494-10.1-13.732-17.469-25.071-108.1-26.07-133.055-3.23-108.214 13.616-132.98 13.616-171.081-3.198-24.122-9.854-43.45-19.966-57.983-5.596-4.11-8.8-8.883-8.8-13.973 0-15.431 29.435-27.94 65.743-27.94 36.309 0 65.743 12.509 65.743 27.94 0 5.406-3.614 10.454-9.87 14.731z" id="path10" stroke="#16191f" stroke-width="6" fill="#7d7f85"/><path d="M169.853 342.242c-3.734 4.182-16.994 22.01-21.883 58.88 0 38.1 16.845 62.867 13.616 171.081-.999 24.955-12.035 115.072-25.767 132.54-4.957 6.783-12.206 9.686-21.745 8.712.12-8.786.814-13.286 2.081-13.5 10.728-1.81 11.253-5.899 11.253-5.899 9.537-10.994 11.694-37.5 4.43-49.69 5.851-33.033 9.07-56.827 9.656-71.382 2.298-57.077-4.278-83.912-7.272-100.947-6.99-39.774-9.848-66.935-6.195-84.861 3.44-16.876 16.874-54.07 30.19-73.612 0 0 2.623-.802 15.128 9.574 8.33 6.911-.8 16.09-3.492 19.104z" id="path11" fill="#687079"/><g id="Group-5" transform="rotate(16 -180.93 220.852)" fill="#16191f"><circle id="Oval-6" cx="11" cy="34" r="2"/><circle id="circle11" cx="26" cy="2" r="2"/><circle id="circle12" cx="72" cy="190" r="2"/><circle id="circle13" cx="50" cy="179" r="2"/><circle id="circle14" cx="68" cy="144" r="2"/><circle id="circle15" cx="43" cy="146" r="2"/><circle id="circle16" cx="35" cy="101" r="2"/><circle id="circle17" cx="37" cy="34" r="2"/><circle id="circle18" cx="2" cy="6" r="2"/><circle id="circle19" cx="28" cy="122" r="2"/><circle id="circle20" cx="35" cy="71" r="2"/><circle id="circle21" cx="15" cy="78" r="2"/></g></g><g id="Group-3" transform="translate(34 111)"><g id="g22" transform="rotate(-19 135.035 238.368)"><use fill="#000" fill-opacity="1" filter="url(#filter-3)" xlink:href="#path-2" id="use21"/><use fill="#fff" xlink:href="#path-2" id="use22"/></g><g id="g24" transform="rotate(-5 268.357 41.943)"><use fill="#000" fill-opacity="1" filter="url(#filter-5)" xlink:href="#path-4" id="use23"/><use fill="#fff" xlink:href="#path-4" id="use24"/></g><g id="Rectangle-6"><use fill="#000" fill-opacity="1" filter="url(#filter-7)" xlink:href="#path-6" id="use25"/><use fill="#fff" xlink:href="#path-6" id="use26"/></g><g id="g28"><use fill="#000" fill-opacity="1" filter="url(#filter-9)" xlink:href="#path-8" id="use27"/><use fill="#fff" xlink:href="#path-8" id="use28"/></g><g id="g30"><use fill="#000" fill-opacity="1" filter="url(#filter-11)" xlink:href="#path-10" id="use29"/><use fill="#fff" xlink:href="#path-10" id="use30"/></g><g id="g32"><use fill="#000" fill-opacity="1" filter="url(#filter-13)" xlink:href="#path-12" id="use31"/><use fill="#fff" xlink:href="#path-12" id="use32"/></g><g id="g34"><use fill="#000" fill-opacity="1" filter="url(#filter-15)" xlink:href="#path-14" id="use33"/><use fill="#fff" xlink:href="#path-14" id="use34"/></g></g></g></svg>