<svg version="1.1" id="Layer_1" xmlns="http://www.w3.org/2000/svg" xmlns:xlink="http://www.w3.org/1999/xlink" x="0px" y="0px"
	 width="100%" viewBox="0 0 872 730" enable-background="new 0 0 872 730" xml:space="preserve">
<path fill="#000000" opacity="1.000000" stroke="none" 
	d="
M522.000000,731.000000 
	C349.500000,731.000000 177.499985,730.985840 5.500059,731.093811 
	C1.750687,731.096191 0.904995,730.249207 0.906611,726.499939 
	C1.010199,486.166656 1.010199,245.833328 0.906611,5.500040 
	C0.904995,1.750815 1.750865,0.905455 5.500033,0.906781 
	C293.166656,1.008528 580.833313,1.008528 868.499939,0.906782 
	C872.249146,0.905456 873.095032,1.750815 873.093384,5.500040 
	C872.989807,245.833328 872.989807,486.166656 873.093384,726.499939 
	C873.095032,730.249207 872.249573,731.098267 868.499878,731.094482 
	C753.166687,730.978882 637.833313,731.000000 522.000000,731.000000 
z"/>
<path fill="#191D22" opacity="1.000000" stroke="none" 
	d="
M63.220840,310.178284 
	C69.101646,301.911469 77.009865,296.244415 84.560745,290.394714 
	C106.946678,273.052216 132.476196,262.665863 160.378616,258.247284 
	C165.907898,257.371674 171.560181,256.406189 177.242416,257.026337 
	C181.011810,257.437714 182.192322,255.803589 182.056625,252.146072 
	C181.259155,230.652802 186.234497,210.153625 194.413910,190.573151 
	C201.414474,173.814697 211.180771,158.625626 223.396606,144.905487 
	C239.145981,127.216698 257.772217,113.745987 279.165253,103.983063 
	C294.054474,97.188232 309.666229,92.702148 325.996796,91.002655 
	C348.329498,88.678535 370.475830,89.349884 392.125580,95.921944 
	C396.819519,97.346855 397.733887,94.823418 398.772980,91.333153 
	C404.226776,73.014503 409.869019,54.751942 415.311981,36.430138 
	C419.640106,21.861017 430.172119,14.066839 444.015869,10.024302 
	C464.644043,4.000634 485.341980,5.472596 506.060486,9.798755 
	C521.280701,12.976845 535.928101,17.893713 549.907837,24.573103 
	C562.222534,30.456936 573.898438,37.732182 583.586670,47.338955 
	C590.946838,54.637249 597.521912,62.851318 600.399902,73.428246 
	C602.083801,79.616943 602.247742,85.397202 600.340332,91.495430 
	C591.410034,120.046890 582.626221,148.644150 573.785645,177.223679 
	C571.802856,183.633423 571.861816,183.393066 578.282288,185.205109 
	C604.877441,192.711014 628.847351,204.861816 649.446106,223.750778 
	C668.690002,241.397400 682.979675,262.129608 692.217773,286.424683 
	C693.661438,290.221375 695.982666,291.199799 699.828003,291.077026 
	C729.540649,290.128387 756.711182,298.580292 781.349792,314.737244 
	C811.005859,334.184448 831.285400,361.056732 841.822266,395.018707 
	C849.621033,420.155334 850.265015,445.704285 844.878357,471.352997 
	C840.081177,494.195374 830.020874,514.709839 815.401794,532.837646 
	C798.432129,553.880005 776.963013,568.830322 751.636414,578.240295 
	C734.621521,584.561951 717.086365,587.142517 698.885010,587.098206 
	C603.888611,586.866882 508.891113,587.065735 413.894714,586.833557 
	C406.994263,586.816711 403.656616,588.230469 400.978943,595.318420 
	C392.981903,616.487061 382.899902,636.793457 372.545868,656.933472 
	C365.699707,670.250061 358.360870,683.235596 349.485443,695.351318 
	C340.532196,707.573303 329.257904,711.807678 314.321014,708.052124 
	C305.271637,705.776855 296.747406,702.606873 291.651428,694.066772 
	C288.295135,688.442078 286.247406,682.318176 286.012665,675.694153 
	C285.019531,647.670349 288.843658,620.056335 293.487915,592.553955 
	C294.343872,587.484924 292.707642,586.928711 288.527466,586.938965 
	C252.028839,587.028198 215.529709,586.919128 179.031143,587.018066 
	C158.238556,587.074402 138.486420,582.187500 119.551628,574.165222 
	C99.301399,565.585693 81.217430,553.367615 66.061356,537.427490 
	C47.006611,517.387085 33.514450,494.047424 25.715525,467.270081 
	C19.933105,447.416351 18.651918,427.197052 20.278440,407.018555 
	C22.914459,374.316284 34.737949,344.802704 55.388634,319.013977 
	C57.790974,316.013916 60.369629,313.226166 63.220840,310.178284 
z"/>
<path fill="#4AC6D7" opacity="1.000000" stroke="none" 
	d="
M265.000000,580.991150 
	C238.504059,580.990967 212.508072,581.019287 186.512161,580.985352 
	C109.697929,580.885132 46.041252,529.743958 29.386660,454.781250 
	C10.858759,371.386688 65.483849,285.860748 149.280701,267.070496 
	C160.198975,264.622192 171.249146,263.000122 182.440262,263.151520 
	C186.889709,263.211731 188.131348,262.123505 188.148056,257.458649 
	C188.346939,201.980606 210.545975,157.208633 255.767014,125.094841 
	C296.947662,95.850357 342.703339,89.263817 391.397461,102.283913 
	C394.407990,103.088882 395.307922,104.049377 394.276184,107.406235 
	C375.316315,169.092163 356.512970,230.826202 337.636993,292.537964 
	C337.160461,294.095917 336.485443,295.716797 335.480927,296.970032 
	C327.690308,306.689331 327.733063,317.092865 332.667969,327.902527 
	C339.127930,342.052704 350.184692,352.091431 362.848083,360.409668 
	C366.897583,363.069672 368.010529,365.779694 367.866455,370.496216 
	C367.364929,386.914093 362.195251,401.877594 354.524109,416.068909 
	C331.776489,458.151184 314.906799,502.506134 302.685120,548.691711 
	C300.256592,557.868958 298.311157,567.149963 296.799286,576.514221 
	C296.278046,579.742737 295.296478,581.277161 291.490814,581.110474 
	C282.842102,580.731506 274.165344,580.991089 265.000000,580.991150 
z"/>
<path fill="#4AC5D6" opacity="1.000000" stroke="none" 
	d="
M430.000000,580.992798 
	C421.857697,580.992798 414.215363,580.992798 406.249420,580.992798 
	C410.230408,567.913879 414.178284,555.241333 417.943787,542.514771 
	C427.707062,509.517212 433.327515,475.723816 436.968872,441.574615 
	C438.783203,424.559692 443.801483,408.760834 453.358185,394.445007 
	C455.026764,391.945526 456.695282,390.848114 459.755920,390.947418 
	C473.023376,391.377655 486.094757,390.024170 498.375000,384.629272 
	C510.846039,379.150604 519.347351,370.587280 519.062256,355.791992 
	C519.034424,354.346710 519.599182,352.862030 520.033508,351.439819 
	C536.018372,299.097168 552.076172,246.776596 567.910278,194.388428 
	C569.130859,190.350052 570.990234,190.263504 574.242615,191.121460 
	C627.579895,205.191681 665.202148,237.304352 686.101624,288.567596 
	C689.564819,297.062042 689.384338,297.135590 698.509216,297.027863 
	C772.070190,296.159454 834.098755,351.905121 841.230225,425.292694 
	C848.619873,501.336700 794.859497,569.267944 718.934387,579.734924 
	C711.838745,580.713135 704.679565,581.025024 697.495605,581.021484 
	C608.497070,580.977234 519.498535,580.992737 430.000000,580.992798 
z"/>
<path fill="#F3DA5C" opacity="1.000000" stroke="none" 
	d="
M469.556702,301.070068 
	C451.018433,292.613403 432.317780,285.906799 412.431915,282.823456 
	C389.933990,279.335175 367.695129,278.744415 346.246765,288.371552 
	C345.169647,286.350128 346.372070,284.743896 346.871399,283.107513 
	C371.361725,202.845642 396.136139,122.668907 420.191650,42.277039 
	C425.753143,23.690865 438.699127,16.485168 455.927704,14.037982 
	C485.309448,9.864530 513.158203,16.070562 540.110596,27.419888 
	C544.849976,29.415571 549.368286,31.936283 554.228638,34.475674 
	C554.881348,37.133636 554.090088,39.329407 553.384521,41.556572 
	C535.199951,98.961357 517.263977,156.444290 499.203796,213.888138 
	C490.772644,240.705002 482.472198,267.563934 473.801544,294.305084 
	C473.000336,296.776093 472.600403,299.580811 469.556702,301.070068 
z"/>
<path fill="#7D7F85" opacity="1.000000" stroke="none" 
	d="
M313.323975,698.654785 
	C299.910004,695.683228 294.187775,689.223572 292.771759,676.304138 
	C290.884155,659.081726 293.268402,642.046875 295.300964,625.056213 
	C299.894165,586.661682 307.382294,548.889465 319.792694,512.129639 
	C329.664948,482.887848 341.299927,454.463531 355.707855,427.168640 
	C361.148315,416.862030 366.828247,406.543152 369.854004,395.275177 
	C375.750885,373.314941 375.678375,351.197754 369.344971,329.250549 
	C368.805664,327.381561 367.497375,325.736755 366.562836,323.979065 
	C362.694366,316.703278 364.529266,310.641113 371.910339,306.922516 
	C382.036011,301.821198 393.002625,302.105408 403.741455,303.155060 
	C428.520081,305.577087 451.512756,313.267548 471.846344,328.672638 
	C472.685791,331.847870 470.329926,333.079010 468.727631,334.612579 
	C452.046387,350.578491 437.632782,368.370056 425.570923,388.057648 
	C417.323425,401.519409 414.031342,416.670898 410.970062,431.851318 
	C406.724915,452.902496 405.130249,474.342163 401.940094,495.548157 
	C396.486328,531.801147 386.061768,566.591736 370.747437,599.916687 
	C366.020844,610.202026 361.095245,620.386780 355.918304,630.450745 
	C354.711060,632.797607 353.748230,635.376099 350.656738,636.612671 
	C347.763977,636.576355 346.627625,634.595703 345.255859,632.958313 
	C334.437622,620.046082 317.505432,621.504700 309.262299,636.373413 
	C303.187744,647.330505 302.995483,659.378418 304.607056,671.415588 
	C305.278229,676.428772 308.434540,680.192627 313.225128,682.339539 
	C314.889679,683.085510 316.629944,683.729858 318.205811,685.368469 
	C318.986725,690.734680 316.598572,694.701233 313.323975,698.654785 
z"/>
<path fill="#F0CE1B" opacity="1.000000" stroke="none" 
	d="
M469.353394,301.351562 
	C475.378113,285.276093 479.743378,268.850494 484.874420,252.681030 
	C503.856293,192.863037 522.582642,132.963974 541.432312,73.103981 
	C545.426392,60.420048 548.730713,47.509117 554.146606,34.960464 
	C567.029419,41.242809 578.031372,49.693771 586.666382,60.982334 
	C593.777222,70.278328 595.616699,80.097076 592.101135,91.821930 
	C567.153015,175.028748 542.658020,258.371429 518.014832,341.669678 
	C517.638672,342.941193 517.214478,344.198486 516.640991,346.002838 
	C506.973511,324.392853 489.093079,312.106415 469.353394,301.351562 
z"/>
<path fill="#686F78" opacity="1.000000" stroke="none" 
	d="
M349.169739,636.649780 
	C350.854095,635.716553 351.708069,634.537598 352.418854,633.167664 
	C368.768250,601.655334 383.050385,569.345764 391.931671,534.799438 
	C397.357697,513.693359 400.639771,492.296570 403.127197,470.687134 
	C405.363922,451.256104 408.212158,431.888794 413.190948,412.901855 
	C417.315369,397.173126 425.227631,383.471375 434.849915,370.559845 
	C445.887482,355.749237 457.556610,341.537354 471.868713,329.233856 
	C476.967865,332.495239 481.134857,336.736908 483.786530,342.269165 
	C486.677429,348.300415 485.515839,353.722992 479.811157,356.968018 
	C458.712708,368.969604 446.729797,388.422760 437.081085,409.516693 
	C432.433380,419.677429 431.412842,431.065094 430.297638,442.126587 
	C426.108459,483.678192 417.162994,524.167847 404.097504,563.791199 
	C390.698456,604.425964 372.465118,642.819763 350.461823,679.459045 
	C347.634918,684.166321 344.430908,688.644165 340.738831,692.738831 
	C333.200043,701.099731 324.161865,703.255493 313.311951,699.047668 
	C314.125824,694.629761 315.514709,690.513550 317.921631,686.438843 
	C318.926422,684.589600 320.477905,684.536438 321.966492,684.559937 
	C328.195618,684.658081 332.802246,681.634705 336.353058,676.884521 
	C344.539398,665.933044 349.863373,653.995239 348.485535,639.881592 
	C348.387756,638.879883 348.505249,637.885437 349.169739,636.649780 
z"/>
<path fill="#DEA114" opacity="1.000000" stroke="none" 
	d="
M392.229553,286.722107 
	C427.377655,288.966980 459.228210,299.369537 487.459930,319.931274 
	C495.857330,326.047272 503.256104,333.250671 508.219879,342.580109 
	C515.551575,356.360138 511.844299,368.399109 498.071198,375.702484 
	C488.564178,380.743713 473.494354,383.580383 459.002106,382.754791 
	C465.223297,375.546173 470.182068,368.198029 478.590393,364.360260 
	C491.563171,358.439240 494.764771,347.748016 486.984100,335.853668 
	C484.133057,331.495331 480.509369,327.832825 476.486603,324.546692 
	C466.044647,316.016754 454.195831,310.037109 441.573578,305.559326 
	C421.737030,298.522217 401.486725,294.485107 380.331360,297.929413 
	C376.032013,298.629395 371.916412,299.963867 368.115753,302.112183 
	C358.763397,307.398529 355.650818,316.520203 360.887115,325.870911 
	C365.890869,334.806458 366.588135,344.469238 367.935699,355.566132 
	C353.054016,344.821655 339.042542,334.880615 335.570648,316.410309 
	C334.007202,308.092896 338.051056,301.534149 344.740051,296.697266 
	C353.539948,290.333954 363.776215,288.099396 374.299988,287.134460 
	C380.086212,286.603912 385.941254,286.824371 392.229553,286.722107 
z"/>
<path fill="#FAFCFC" opacity="1.000000" stroke="none" 
	d="
M124.055275,397.230652 
	C123.701782,397.471893 123.512177,397.533295 123.324326,397.861969 
	C122.680176,398.396790 121.937851,398.470581 121.175186,399.181427 
	C121.017822,399.501923 121.028816,399.491150 121.034454,399.485352 
	C120.900665,399.886353 120.695175,400.255615 120.144760,400.755249 
	C119.875931,400.928864 119.960716,400.938110 119.935471,400.903748 
	C119.766357,401.177948 119.564445,401.443176 119.087296,401.786102 
	C118.862419,401.901367 118.952644,401.954254 118.928299,401.907959 
	C118.763039,402.173035 118.568420,402.445068 118.084610,402.785583 
	C117.857864,402.899719 117.947906,402.948242 117.924561,402.902740 
	C117.763100,403.171112 117.569374,403.444672 117.082008,403.782776 
	C116.853142,403.894287 116.946045,403.945862 116.920868,403.899078 
	C116.763359,404.170135 116.568176,404.443024 116.078918,404.778656 
	C115.847603,404.886292 115.946777,404.947021 115.917023,404.897064 
	C115.761307,405.168457 115.568779,405.443176 115.077873,405.778442 
	C114.845947,405.885559 114.945084,405.944397 114.915634,405.894836 
	C114.760071,406.166748 114.571106,406.444305 114.077049,406.777679 
	C113.844452,406.884094 113.944763,406.943909 113.914520,406.893951 
	C113.761612,407.167542 113.570045,407.443207 113.076614,407.776672 
	C112.843575,407.882233 112.946144,407.944672 112.914215,407.893829 
	C112.760597,408.166779 112.569717,408.442719 112.076462,408.775757 
	C111.843170,408.880676 111.948662,408.946747 111.914444,408.894775 
	C111.758629,409.165863 111.571869,409.444061 111.076660,409.774628 
	C110.843346,409.878784 110.952682,409.950775 110.915405,409.896973 
	C110.759804,410.167450 110.570549,410.443054 110.077385,410.773621 
	C109.844353,410.877258 109.958282,410.954590 109.917374,410.899231 
	C109.760948,411.168854 109.568871,411.441437 109.078308,411.771576 
	C108.845482,411.874115 108.968773,411.961273 108.920715,411.903046 
	C108.755936,412.167023 108.572609,412.443848 108.079102,412.768311 
	C107.846390,412.868713 107.979767,412.974701 107.923691,412.910583 
	C107.753136,413.168518 107.571228,413.445007 107.081337,413.773041 
	C106.851006,413.877045 106.973282,413.971222 106.924637,413.911316 
	C106.758850,414.171997 106.568031,414.441803 106.083984,414.771912 
	C105.854683,414.876343 105.986137,414.974091 105.930206,414.914215 
	C105.755859,415.171997 105.569237,415.442657 105.086243,415.770020 
	C104.858047,415.873749 104.990700,415.986816 104.931976,415.922363 
	C104.785172,416.195099 104.599075,416.464600 104.088882,416.772278 
	C103.862808,416.878174 103.995033,416.986389 103.935654,416.924835 
	C103.784081,417.196686 103.597404,417.464142 103.092529,417.773651 
	C102.868813,417.881622 102.994667,417.992798 102.937683,417.931091 
	C102.782898,418.198547 102.595016,418.463898 102.095589,418.775635 
	C101.874138,418.885803 101.994797,418.966248 101.933952,418.921753 
	C101.470917,419.550964 100.894501,420.073608 100.136292,420.819702 
	C99.917664,421.011200 99.998138,420.999237 99.992035,420.959015 
	C99.497429,421.521454 98.930824,422.047821 98.132996,422.748230 
	C97.899193,422.919708 97.978188,422.983398 97.954727,422.938416 
	C97.787254,423.199371 97.583138,423.457855 97.109344,423.802734 
	C96.899765,423.936584 96.976570,423.977478 96.956749,423.938751 
	C96.786812,424.200714 96.581177,424.456818 96.112854,424.804260 
	C95.905685,424.940186 95.980835,424.981659 95.960617,424.943787 
	C95.785652,425.202301 95.579048,425.456573 95.116638,425.807953 
	C94.912666,425.947205 94.983788,425.984467 94.965858,425.948547 
	C94.785309,426.203613 94.576103,426.455963 94.118546,426.812012 
	C93.916771,426.954285 93.999344,426.995270 93.962219,426.967651 
	C93.440643,427.846436 92.847519,428.685638 92.056000,429.735657 
	C91.805038,429.914032 91.891884,429.921448 91.887970,429.878052 
	C91.763672,430.161804 91.572662,430.440643 91.079216,430.783630 
	C90.847336,430.896149 90.971115,430.909332 90.916107,430.880188 
	C90.588570,431.269043 90.197273,431.473450 89.369766,431.380310 
	C87.911156,428.894653 90.038643,427.654175 91.008011,426.169861 
	C100.468018,411.684235 110.161942,397.345520 118.212418,381.994598 
	C120.864929,376.936646 120.773941,376.771851 115.109367,375.984070 
	C108.102318,375.009583 101.082855,374.124268 94.038795,372.520782 
	C101.796799,370.358063 109.506279,367.992249 117.334106,366.121765 
	C121.029640,365.238708 121.577003,363.905304 119.852783,360.701080 
	C114.371712,350.515228 106.732483,341.904755 99.830750,332.433807 
	C100.181076,331.683899 100.564331,331.395630 101.401932,331.192017 
	C107.266212,333.278717 110.843620,338.059784 115.607368,341.237732 
	C120.397621,344.433380 125.270096,347.479675 130.198349,350.443237 
	C131.303391,351.107697 132.544815,351.686768 134.278366,351.265503 
	C137.113052,345.575897 138.306671,339.613068 139.731415,333.725952 
	C140.447815,330.765747 140.897842,332.370056 141.656036,333.952209 
	C145.242783,337.339783 144.734543,342.041779 146.409515,345.895386 
	C147.174896,347.656219 147.000305,349.877777 149.495148,350.925903 
	C157.404190,346.624054 163.629944,340.587219 169.871323,334.622253 
	C176.609146,328.182892 183.060669,321.444550 189.675201,314.875000 
	C191.063248,313.496399 192.109863,311.658813 194.623367,311.394318 
	C195.313278,313.312836 194.215378,314.430115 193.339142,315.604553 
	C183.837021,328.340515 174.702286,341.320740 166.848099,355.160919 
	C166.522064,355.735413 166.196075,356.300568 165.908829,356.898468 
	C163.240829,362.452240 163.461395,362.637115 169.643188,363.060852 
	C173.740814,363.341766 177.817245,364.027740 182.303680,364.429749 
	C185.097641,364.521149 187.509567,364.479309 190.328598,364.569153 
	C191.214783,364.946930 191.492783,365.397278 191.472839,366.372925 
	C182.233353,367.962463 173.195145,369.643585 164.102356,372.645142 
	C161.811081,375.012878 163.277481,376.947479 164.238159,378.789185 
	C168.048325,386.093414 173.488083,392.116943 179.301331,397.861450 
	C180.903137,399.444305 183.142273,400.649628 183.297211,403.624512 
	C180.830994,404.929504 179.620895,402.845947 178.124786,401.852844 
	C169.974258,396.442719 161.954010,390.830444 152.560547,386.881775 
	C148.832855,389.705963 149.694122,394.035553 148.585373,397.674408 
	C148.122726,399.192810 148.425537,400.954163 147.066925,402.528320 
	C146.338943,403.915131 145.945938,405.150696 145.431656,406.767548 
	C143.241974,401.575592 141.271515,396.678192 139.120712,391.861328 
	C136.494049,385.978790 136.428574,386.008026 131.763580,390.862854 
	C131.490540,391.359741 131.376556,391.522766 130.989502,391.806000 
	C130.716431,391.926208 130.579773,391.805878 130.511658,391.866272 
	C130.065125,392.104889 129.713501,392.325287 129.141296,392.780060 
	C128.889938,392.965973 128.987625,392.968018 128.986801,392.919159 
	C128.610672,393.417999 127.994843,393.483215 127.178589,393.813385 
	C126.929054,393.979797 126.994492,393.993439 126.994835,393.960022 
	C126.787125,394.191895 126.561302,394.441071 126.116814,394.827209 
	C125.916000,394.980347 125.985214,394.985931 125.982292,394.951355 
	C125.782379,395.188812 125.563232,395.441467 125.114410,395.818604 
	C124.910278,395.965424 124.979401,395.980194 124.968430,395.946594 
	C124.696396,396.252014 124.437759,396.592834 124.055275,397.230652 
z"/>
<path fill="#F8FAFB" opacity="1.000000" stroke="none" 
	d="
M288.934753,169.355301 
	C299.279083,166.511414 308.122528,161.010345 317.570892,155.966827 
	C318.128998,155.745377 318.357635,155.641769 318.919220,155.713470 
	C319.482361,156.356506 319.528229,156.841583 319.112610,157.597992 
	C318.836121,157.851929 318.910461,157.881180 318.916199,157.841660 
	C318.622498,158.417404 318.016144,158.479477 317.190918,158.756149 
	C316.929810,158.894699 316.972412,158.982681 316.939819,158.946136 
	C316.032745,160.140228 314.893524,161.033356 313.217957,161.747696 
	C312.945679,161.905609 312.937195,161.939011 312.920044,161.940948 
	C311.831665,163.252701 310.608856,164.412888 309.076080,165.694107 
	C308.800201,165.848785 308.894470,165.872177 308.896698,165.823669 
	C308.630554,166.412903 308.029205,166.477325 307.205627,166.743683 
	C306.945282,166.879990 306.891083,166.887619 306.883545,166.913940 
	C303.821350,170.389755 300.354126,173.437576 297.226959,176.812256 
	C294.410889,179.851242 294.652283,180.701584 298.378937,182.246475 
	C302.635895,184.011185 307.002869,185.439896 311.626709,186.936707 
	C306.680054,188.893845 301.541626,186.551407 295.963013,187.411255 
	C294.098663,188.949829 294.655945,190.363754 295.208466,192.028931 
	C296.760132,196.705566 298.817871,201.118378 301.136688,205.453568 
	C301.931091,206.938690 303.712982,208.151581 302.814941,210.508606 
	C300.372986,211.274780 299.808777,209.260544 298.767151,208.152451 
	C294.552368,203.668655 290.766754,198.769379 285.530273,194.846313 
	C281.617920,195.789368 282.036804,199.824310 279.583313,202.114563 
	C278.769836,202.881302 278.263672,203.511917 277.414978,204.569244 
	C276.919159,201.644836 276.257507,199.164001 276.124603,196.655167 
	C275.868347,191.816605 273.882690,191.194519 270.009735,193.576508 
	C265.829742,196.147324 261.521729,198.510010 256.902100,201.075363 
	C256.014130,201.900879 255.231613,202.233810 254.204102,202.767426 
	C253.933075,202.930328 253.994110,202.996231 253.973785,202.956223 
	C253.352097,203.826248 252.355133,204.156403 251.186111,204.778107 
	C250.920837,204.933014 250.994904,204.984787 250.970795,204.946564 
	C250.769485,205.192581 250.557175,205.447601 250.087982,205.789108 
	C249.866272,205.904861 249.940964,205.923523 249.940765,205.885025 
	C249.606583,206.429077 248.996246,206.481384 248.177231,206.772461 
	C247.918106,206.914383 248.003540,206.986038 247.968140,206.942673 
	C247.765228,207.190811 247.556793,207.449295 247.082581,207.785767 
	C246.857819,207.896820 246.933868,207.911377 246.934265,207.872681 
	C246.643921,208.261642 246.246033,208.489853 245.354797,208.487991 
	C244.484222,208.408722 244.087463,208.163406 243.913223,207.376175 
	C250.933517,200.339066 257.807404,193.606781 264.798798,186.998856 
	C267.198059,184.731201 267.125000,183.342682 263.921631,182.198105 
	C260.020630,180.804245 256.168518,179.273483 252.302856,177.782196 
	C252.219604,177.750076 252.162918,177.453613 252.212662,177.327225 
	C252.262650,177.200256 252.461395,177.131836 252.818939,176.942444 
	C258.083893,176.039017 263.165863,176.777588 268.619751,176.244049 
	C271.408112,174.441574 269.851440,172.501038 269.315247,170.813629 
	C267.451080,164.947174 264.316559,159.646439 261.518982,153.809402 
	C261.459503,153.274384 261.495117,153.084320 261.820679,152.885727 
	C262.352173,152.983810 262.593719,153.090408 263.209930,153.325333 
	C268.121704,156.212875 270.913757,160.851303 275.028778,164.080414 
	C276.686035,165.380905 277.900635,167.297989 280.617188,167.327759 
	C282.209930,165.134995 283.365448,162.971756 284.764221,160.979279 
	C286.185181,158.955200 285.763977,161.072769 286.088440,161.913788 
	C288.864288,163.873611 286.138153,167.467819 288.934753,169.355301 
z"/>
<path fill="#F9FCFD" opacity="1.000000" stroke="none" 
	d="
M150.549225,516.289673 
	C149.316238,517.723755 148.419235,519.055542 147.100677,521.013184 
	C147.997818,510.477631 145.481567,502.295837 134.886078,497.813049 
	C145.740677,496.571411 152.044846,490.392426 155.540787,480.475586 
	C155.653015,481.622253 155.765259,482.768921 155.994781,484.272705 
	C157.425903,485.404236 157.614197,486.807800 157.833145,488.073242 
	C158.920425,494.357635 162.381989,498.972198 167.892761,502.628235 
	C168.494263,504.300598 167.442566,504.393219 166.214752,504.810547 
	C165.924591,505.026093 166.026291,505.047272 166.039948,504.997162 
	C158.911636,505.878998 155.231583,511.482697 150.549225,516.289673 
z"/>
<path fill="#F9FCFD" opacity="1.000000" stroke="none" 
	d="
M283.549255,467.289703 
	C282.316589,468.723267 281.419952,470.054443 280.100677,472.013031 
	C280.997894,461.477539 278.481415,453.295898 267.865082,448.789185 
	C278.747223,447.578705 285.130859,441.488190 288.540680,431.475586 
	C288.652954,432.622253 288.765228,433.768921 288.994781,435.272705 
	C290.425964,436.404236 290.614197,437.807800 290.833130,439.073242 
	C291.920441,445.357635 295.382050,449.972198 300.892761,453.628235 
	C301.494232,455.300598 300.442627,455.393250 299.214752,455.810516 
	C298.924591,456.026093 299.026276,456.047302 299.039917,455.997192 
	C291.911682,456.879120 288.231537,462.482666 283.549255,467.289703 
z"/>
<path fill="#F9FCFD" opacity="1.000000" stroke="none" 
	d="
M263.562439,332.277771 
	C262.329010,333.716370 261.429596,335.047943 260.246948,336.798828 
	C260.154724,331.792267 260.496094,327.187561 258.250000,322.917572 
	C256.043182,318.722290 252.568741,316.130096 247.905731,313.793091 
	C258.745392,312.573669 265.045380,306.388947 268.541382,296.474731 
	C268.654205,297.623474 268.767029,298.772186 268.999634,300.277588 
	C270.041138,301.212280 270.420593,302.119781 270.585205,303.131531 
	C271.627655,309.537933 275.019745,314.468323 280.243896,318.673401 
	C279.972107,321.597229 277.278320,320.818573 275.604492,322.160767 
	C269.969574,323.842834 267.535065,328.700531 263.562439,332.277771 
z"/>
<path fill="#2E3C42" opacity="1.000000" stroke="none" 
	d="
M182.320831,364.570557 
	C175.407043,364.595551 168.826431,364.107147 161.806854,362.924377 
	C170.710831,344.385101 182.838684,328.466248 194.840210,311.989807 
	C195.018478,311.627716 195.038589,311.628387 195.029022,311.593445 
	C195.224030,310.872223 195.498627,310.206696 195.907898,309.273010 
	C196.186905,309.047516 196.060196,309.070160 196.076508,309.132385 
	C196.220474,309.016083 196.348129,308.837555 196.795120,308.566528 
	C197.334747,308.428040 197.555023,308.381958 198.108276,308.421204 
	C198.625488,308.649536 198.809753,308.792603 198.853180,309.255981 
	C188.168335,324.338531 177.092941,338.744843 168.356262,354.719543 
	C167.184402,356.862244 166.228775,359.123199 164.972748,361.747833 
	C170.834473,362.325317 176.095108,362.843567 181.704498,363.562744 
	C182.244247,363.947632 182.435257,364.131653 182.320831,364.570557 
z"/>
<path fill="#232D33" opacity="1.000000" stroke="none" 
	d="
M183.152512,403.974274 
	C178.582977,398.311035 172.593765,393.949860 168.321548,387.958191 
	C165.805649,384.429779 163.251785,380.955109 161.627655,376.899292 
	C160.922775,375.139038 159.935608,373.288300 163.448914,372.917236 
	C165.456100,380.307648 170.299530,385.788910 175.065079,391.224762 
	C178.644897,395.308014 182.695786,398.976074 186.478012,402.885986 
	C187.254272,403.688446 189.359711,404.588593 186.436737,405.787476 
	C185.124268,405.428162 184.194214,405.064758 183.253662,404.131042 
	C183.074188,403.889709 183.102798,403.990021 183.152512,403.974274 
z"/>
<path fill="#232D33" opacity="1.000000" stroke="none" 
	d="
M134.239899,351.033630 
	C133.585464,355.007812 131.342575,352.278320 130.132538,351.659424 
	C120.104950,346.530701 110.953598,340.095245 102.353668,332.339417 
	C101.198143,331.124908 99.370987,331.075378 99.073669,329.045135 
	C101.308105,326.376892 102.271210,329.094513 103.383713,329.986633 
	C113.030968,337.723175 122.728378,345.365753 134.239899,351.033630 
z"/>
<path fill="#232D33" opacity="1.000000" stroke="none" 
	d="
M302.459442,210.843994 
	C299.223602,204.440186 295.356781,198.348648 293.506226,191.336273 
	C293.120514,189.874710 291.492676,187.729477 295.160583,187.450378 
	C296.879150,194.784012 300.299652,201.198792 303.718506,207.615585 
	C304.646820,209.357971 304.631775,209.365982 303.761536,211.305923 
	C303.668976,211.409546 303.806061,211.740585 303.677338,211.811798 
	C303.185547,212.083984 302.782166,211.807755 302.259888,211.129654 
	C302.115326,210.755386 302.342651,210.923889 302.459442,210.843994 
z"/>
<path fill="#263036" opacity="1.000000" stroke="none" 
	d="
M301.112122,454.247803 
	C292.753876,450.891571 289.531921,444.511047 289.057495,435.988525 
	C289.900238,434.028168 290.688354,432.426483 291.843201,430.079529 
	C291.990692,439.635529 293.720764,447.997955 302.026306,453.632141 
	C301.882782,454.110291 301.672821,454.251465 301.112122,454.247803 
z"/>
<path fill="#232D33" opacity="1.000000" stroke="none" 
	d="
M280.409607,319.217926 
	C272.773407,315.353394 269.394501,309.290344 269.065277,300.992798 
	C269.903809,299.047180 270.688171,297.460052 271.799774,295.210846 
	C272.027344,304.718689 273.728699,313.167938 282.276794,318.735474 
	C281.914642,319.415100 281.368164,319.545319 280.409607,319.217926 
z"/>
<path fill="#263036" opacity="1.000000" stroke="none" 
	d="
M168.112228,503.247833 
	C159.753952,499.891663 156.531906,493.511139 156.057465,484.988525 
	C156.900162,483.028168 157.688293,481.426453 158.843033,479.079712 
	C158.990875,488.635406 160.720581,496.998047 169.026291,502.632141 
	C168.882767,503.110291 168.672867,503.251465 168.112228,503.247833 
z"/>
<path fill="#33454C" opacity="1.000000" stroke="none" 
	d="
M311.798798,186.862961 
	C305.859344,186.463577 300.548889,183.671646 294.918152,181.898956 
	C292.499054,181.137375 293.716431,179.710739 294.599640,178.511124 
	C297.869507,174.069870 301.975800,170.465134 306.539978,166.962921 
	C307.365509,170.009949 304.423737,170.632950 302.929779,172.118179 
	C294.600067,180.399170 294.540039,180.314316 305.375275,183.978973 
	C307.548950,184.714157 309.655853,185.646805 311.798798,186.862961 
z"/>
<path fill="#232D33" opacity="1.000000" stroke="none" 
	d="
M149.655746,350.673950 
	C148.361893,352.736694 146.975037,353.302856 146.178055,350.502472 
	C144.706909,345.333221 143.324860,340.138580 141.877701,334.560791 
	C142.267975,333.105072 142.686234,332.043091 143.405624,330.216522 
	C145.565567,337.385986 147.519424,343.871429 149.655746,350.673950 
z"/>
<path fill="#2C3940" opacity="1.000000" stroke="none" 
	d="
M283.350494,467.809021 
	C286.019196,460.672974 290.925232,456.685883 298.648895,455.892395 
	C291.177460,459.085144 286.533905,465.196594 283.487732,473.646454 
	C283.487732,471.289062 283.487732,469.757507 283.350494,467.809021 
z"/>
<path fill="#2C3940" opacity="1.000000" stroke="none" 
	d="
M150.350494,516.808960 
	C153.019211,509.672943 157.925293,505.685913 165.648911,504.892395 
	C158.157822,508.067047 153.536255,514.198730 150.487747,522.615540 
	C150.487747,520.289001 150.487747,518.757446 150.350494,516.808960 
z"/>
<path fill="#223239" opacity="1.000000" stroke="none" 
	d="
M280.624115,167.095490 
	C279.937378,170.569229 278.333160,168.031143 277.419891,167.361633 
	C272.225769,163.553864 267.580566,159.150452 263.714783,153.654724 
	C263.490509,152.827209 263.094025,151.884094 263.357697,151.632309 
	C264.229767,150.799561 264.670441,151.904633 265.129730,152.380066 
	C268.083588,155.437683 270.912170,158.620697 273.945679,161.595490 
	C275.920746,163.532288 278.172668,165.186737 280.624115,167.095490 
z"/>
<path fill="#29353C" opacity="1.000000" stroke="none" 
	d="
M263.370850,332.800476 
	C265.200592,327.085663 268.983398,323.663635 274.597015,321.677246 
	C275.102173,321.785553 275.247314,321.983002 275.344971,322.544983 
	C269.104248,326.055023 266.399353,331.951935 263.513275,337.943420 
	C263.513275,336.247406 263.513275,334.731781 263.370850,332.800476 
z"/>
<path fill="#232D33" opacity="1.000000" stroke="none" 
	d="
M146.885132,402.988464 
	C146.683792,397.882568 147.988159,393.307007 149.156128,388.728394 
	C149.440598,387.613281 149.252655,385.357513 151.969696,386.552185 
	C151.150681,392.325653 150.107513,397.820251 149.016006,403.305267 
	C148.891388,403.931427 149.404999,405.193817 148.041321,404.906586 
	C147.613007,404.816376 147.367493,403.858246 146.885132,402.988464 
z"/>
<path fill="#29353C" opacity="1.000000" stroke="none" 
	d="
M289.148041,169.019867 
	C287.479279,170.414062 286.041412,170.685684 286.039581,167.961182 
	C286.038483,166.319778 286.030731,164.678391 286.093109,162.617126 
	C287.137421,161.722900 286.901489,159.980743 289.065765,160.064011 
	C289.065765,162.864487 289.065765,165.704727 289.148041,169.019867 
z"/>
<path fill="#223239" opacity="1.000000" stroke="none" 
	d="
M279.452515,202.517075 
	C279.889221,199.505371 281.168579,197.054291 282.538208,194.625610 
	C283.162659,193.518311 283.798431,193.278214 285.008606,194.385437 
	C283.866943,197.512115 282.503082,200.315414 281.156250,203.126877 
	C280.126678,205.276077 280.026764,203.389999 279.452515,202.517075 
z"/>
<path fill="#686F78" opacity="1.000000" stroke="none" 
	d="
M275.633728,322.844147 
	C275.239380,322.689606 275.181274,322.469757 275.040100,321.919006 
	C276.644226,320.954163 278.331421,320.320251 280.033752,319.331207 
	C280.572815,318.992401 281.096680,319.008728 282.015198,319.047180 
	C283.820496,319.532715 284.034607,320.291992 282.576691,320.828430 
	C280.426361,321.619598 278.177094,322.141968 275.633728,322.844147 
z"/>
<path fill="#C3E9EE" opacity="1.000000" stroke="none" 
	d="
M98.745293,328.616241 
	C99.999649,329.660309 100.920387,330.629486 101.950943,331.901123 
	C101.575233,332.155090 101.089706,332.106598 100.240204,332.069214 
	C99.876221,332.080292 99.931450,332.025635 99.957703,332.054260 
	C99.814987,331.946808 99.646027,331.810730 99.213898,331.866119 
	C98.221680,331.397430 97.444611,330.781769 96.778755,330.063080 
	C96.247452,329.489594 95.224007,328.747131 95.813438,328.027679 
	C96.677940,326.972473 97.525658,328.348083 98.745293,328.616241 
z"/>
<path fill="#BFDEE3" opacity="1.000000" stroke="none" 
	d="
M319.824066,156.280411 
	C319.275604,156.124115 318.998566,156.079041 318.310913,155.941483 
	C319.996826,154.066513 322.288757,152.673203 325.866852,151.624664 
	C324.594055,154.269394 322.632202,154.759949 320.977905,156.048935 
	C320.462921,156.257828 320.279175,156.324722 319.824066,156.280411 
z"/>
<path fill="#578A92" opacity="1.000000" stroke="none" 
	d="
M268.553650,176.066376 
	C264.091309,177.798767 258.985443,176.722931 253.503082,176.916138 
	C257.972931,174.911423 263.079376,176.479065 268.553650,176.066376 
z"/>
<path fill="#C3E9EE" opacity="1.000000" stroke="none" 
	d="
M89.501877,432.461853 
	C87.973305,434.115173 87.160118,436.341248 84.279678,436.876617 
	C84.616753,434.384460 86.183594,432.921082 87.629524,431.083862 
	C88.156769,431.157471 88.450363,431.348083 89.019852,431.602356 
	C89.341026,431.886383 89.429100,432.040924 89.501877,432.461853 
z"/>
<path fill="#BFDEE3" opacity="1.000000" stroke="none" 
	d="
M200.300415,305.265808 
	C199.694641,302.731354 201.787018,301.927338 203.061203,300.610107 
	C203.326767,300.335541 204.260208,299.692505 204.036591,301.007751 
	C203.961716,301.448120 203.579193,301.836212 203.314148,302.521057 
	C202.999939,303.076202 202.697678,303.346008 202.151459,303.798645 
	C201.917252,303.992371 201.989685,303.990509 201.987976,303.954315 
	C201.788239,304.190918 201.561829,304.437958 201.117859,304.824829 
	C200.924652,304.986725 200.988556,304.997986 200.973251,304.969360 
	C200.828461,305.094086 200.698975,305.247467 200.300415,305.265808 
z"/>
<path fill="#2C3940" opacity="1.000000" stroke="none" 
	d="
M300.751038,454.394348 
	C300.982666,454.075500 301.204010,454.048035 301.759033,453.994873 
	C302.682251,454.213623 303.649841,454.331512 303.782867,454.728821 
	C304.061890,455.562195 303.127502,455.596588 302.570892,455.654449 
	C301.599426,455.755493 300.614807,455.729584 299.280151,455.891479 
	C299.529968,455.579285 300.135345,455.132507 300.751038,454.394348 
z"/>
<path fill="#1A2026" opacity="1.000000" stroke="none" 
	d="
M182.452072,364.902191 
	C182.028793,364.648773 182.042221,364.472076 182.054443,364.029480 
	C185.196686,363.933838 188.340103,364.104004 191.725739,364.610168 
	C191.811600,365.138458 191.655289,365.330719 191.129272,365.561798 
	C188.135971,365.393372 185.512375,365.186157 182.452072,364.902191 
z"/>
<path fill="#33454C" opacity="1.000000" stroke="none" 
	d="
M309.166260,165.935822 
	C308.750153,163.507782 311.137268,163.354645 312.563660,161.988678 
	C313.431824,164.667984 310.786377,164.770676 309.166260,165.935822 
z"/>
<path fill="#2C3940" opacity="1.000000" stroke="none" 
	d="
M167.751099,503.394409 
	C167.982803,503.075531 168.204117,503.048035 168.759033,502.994873 
	C169.682236,503.213593 170.649780,503.331421 170.782883,503.728790 
	C171.062027,504.562103 170.127609,504.596588 169.570999,504.654480 
	C168.599533,504.755524 167.614853,504.729584 166.280151,504.891479 
	C166.529968,504.579315 167.135330,504.132538 167.751099,503.394409 
z"/>
<path fill="#D6EEF2" opacity="1.000000" stroke="none" 
	d="
M240.953033,211.697678 
	C240.045700,212.099258 239.638046,213.215866 238.735382,212.698303 
	C237.730011,212.121826 238.218811,211.432175 238.971390,210.947311 
	C240.161423,210.180618 241.366409,209.437164 242.900635,208.873016 
	C243.414978,209.799988 243.014145,210.253754 242.194244,210.804794 
	C241.923126,210.974579 241.991348,210.988586 241.994812,210.953918 
	C241.783493,211.214584 241.523117,211.462891 240.953033,211.697678 
z"/>
<path fill="#33454C" opacity="1.000000" stroke="none" 
	d="
M313.216095,162.233246 
	C313.592926,160.405960 315.085052,159.838318 316.578735,158.909805 
	C317.161438,161.433090 314.906555,161.605927 313.216095,162.233246 
z"/>
<path fill="#2E3C42" opacity="1.000000" stroke="none" 
	d="
M200.016663,305.094604 
	C200.031326,305.130798 200.496796,305.043610 200.727371,304.992188 
	C201.928955,306.991394 199.785553,307.709076 198.947937,309.331421 
	C198.553864,309.452240 198.395370,309.328156 198.014252,309.000092 
	C197.579025,308.403931 197.516846,307.989166 197.851654,307.339905 
	C198.098633,307.127991 198.042877,307.118256 198.068329,307.109680 
	C198.222610,306.793732 198.417984,306.536957 198.882019,306.194153 
	C199.084137,306.057465 199.014771,306.005463 199.035645,306.043457 
	C199.207916,305.781586 199.424057,305.539581 199.890579,305.194763 
	C200.076218,305.034088 200.001984,305.058411 200.016663,305.094604 
z"/>
<path fill="#93A8AD" opacity="1.000000" stroke="none" 
	d="
M190.759338,365.832825 
	C190.939545,365.452118 191.119507,365.303619 191.633698,365.050659 
	C192.916275,365.035461 193.864624,365.124725 194.938934,365.225861 
	C194.208389,366.669373 193.040009,366.687592 191.654510,366.805359 
	C191.171783,366.535950 190.966766,366.299316 190.759338,365.832825 
z"/>
<path fill="#FAFCFC" opacity="1.000000" stroke="none" 
	d="
M182.937805,404.256500 
	C184.271957,403.713806 184.991867,404.531158 185.934967,405.464111 
	C184.648727,406.371826 183.568665,405.959869 182.937805,404.256500 
z"/>
<path fill="#365158" opacity="1.000000" stroke="none" 
	d="
M254.214813,203.117798 
	C254.190262,201.823624 255.272369,201.804260 256.278046,201.266602 
	C256.475800,202.490356 255.789047,203.189240 254.214813,203.117798 
z"/>
<path fill="#365158" opacity="1.000000" stroke="none" 
	d="
M251.278442,205.068604 
	C251.242706,203.706406 252.454483,203.530792 253.625702,202.918213 
	C254.265701,204.777557 252.709702,204.746613 251.278442,205.068604 
z"/>
<path fill="#33454C" opacity="1.000000" stroke="none" 
	d="
M92.187027,429.899261 
	C90.994812,428.310547 92.914642,428.158203 93.594162,427.055359 
	C94.908958,428.582855 93.259537,429.012848 92.187027,429.899261 
z"/>
<path fill="#4A545A" opacity="1.000000" stroke="none" 
	d="
M100.222107,420.855042 
	C100.352982,420.261047 100.788300,419.510895 101.548363,418.819000 
	C102.405098,420.209503 101.298401,420.330444 100.222107,420.855042 
z"/>
<path fill="#365158" opacity="1.000000" stroke="none" 
	d="
M242.284561,211.053192 
	C242.303223,210.532181 242.683319,210.089767 243.149796,209.354752 
	C243.236191,209.062149 243.159592,209.020096 243.123840,209.045212 
	C243.410049,208.680130 243.823059,208.506210 244.654236,208.697479 
	C245.137299,210.562973 243.725601,210.677719 242.284561,211.053192 
z"/>
<path fill="#33454C" opacity="1.000000" stroke="none" 
	d="
M98.245796,423.053101 
	C97.865761,421.875610 98.715378,421.433197 99.655457,420.873016 
	C100.311241,422.160034 99.444939,422.669037 98.245796,423.053101 
z"/>
<path fill="#F8FAFB" opacity="1.000000" stroke="none" 
	d="
M302.037750,211.061386 
	C302.496582,210.149216 302.868347,210.408630 303.330566,210.934082 
	C303.436310,211.752182 303.450500,212.403900 303.464691,213.055603 
	C302.525879,212.882584 302.154694,212.203705 302.037750,211.061386 
z"/>
<path fill="#33454C" opacity="1.000000" stroke="none" 
	d="
M89.702324,432.554993 
	C89.486588,432.728210 89.369965,432.297699 89.208603,432.143738 
	C88.888863,431.835449 88.730484,431.681152 88.831497,431.320068 
	C89.090874,431.113342 89.003029,431.168762 89.019279,431.217468 
	C89.428101,431.056305 89.820679,430.846436 90.537178,430.743805 
	C91.315971,431.835205 90.654327,432.131470 89.702324,432.554993 
z"/>
<path fill="#33454C" opacity="1.000000" stroke="none" 
	d="
M319.315247,156.439667 
	C319.773834,156.343430 320.015564,156.379471 320.462280,156.234131 
	C320.511932,157.001816 320.401794,157.828857 319.123169,157.965210 
	C318.916687,157.471329 318.997253,157.090729 319.315247,156.439667 
z"/>
<path fill="#D6EEF2" opacity="1.000000" stroke="none" 
	d="
M244.992798,208.887115 
	C244.564667,208.934647 244.148041,209.022980 243.409760,209.090820 
	C242.403564,208.347565 242.996765,207.865860 243.713043,207.186646 
	C244.151627,207.311142 244.345169,207.555801 244.788422,207.889923 
	C245.189575,208.191681 245.396484,208.360107 245.262787,208.738647 
	C244.922165,208.948746 245.004288,208.927887 244.992798,208.887115 
z"/>
<path fill="#365158" opacity="1.000000" stroke="none" 
	d="
M245.256958,209.072296 
	C244.922165,208.948746 244.863708,208.479752 244.923187,208.251511 
	C245.425034,207.837585 245.867401,207.651901 246.622223,207.650085 
	C246.924286,208.719086 246.318970,209.017578 245.256958,209.072296 
z"/>
<path fill="#365158" opacity="1.000000" stroke="none" 
	d="
M248.247177,207.057587 
	C247.961517,206.034561 248.717270,205.871918 249.621979,205.692505 
	C249.924866,206.740280 249.307800,207.028198 248.247177,207.057587 
z"/>
<path fill="#33454C" opacity="1.000000" stroke="none" 
	d="
M307.208130,167.211060 
	C307.411591,166.339813 307.877899,165.799637 308.621582,165.517303 
	C309.050568,166.871368 308.239258,167.189362 307.208130,167.211060 
z"/>
<path fill="#33454C" opacity="1.000000" stroke="none" 
	d="
M317.230774,159.146790 
	C317.399597,158.379578 317.869385,157.864471 318.630554,157.575745 
	C318.970520,158.780167 318.273987,159.109421 317.230774,159.146790 
z"/>
<path fill="#FAFCFC" opacity="1.000000" stroke="none" 
	d="
M195.751984,309.169708 
	C196.849182,309.957886 195.924271,310.412048 195.316437,311.300598 
	C193.976212,310.652924 194.745880,309.985443 195.751984,309.169708 
z"/>
<path fill="#F8FAFB" opacity="1.000000" stroke="none" 
	d="
M260.083008,150.565796 
	C260.039825,150.573730 260.126160,150.557877 260.083008,150.565796 
z"/>
<path fill="#BFDEE3" opacity="1.000000" stroke="none" 
	d="
M197.895737,306.995789 
	C198.056473,307.497131 198.014328,307.866302 197.881927,308.515778 
	C197.791656,308.796112 197.409164,308.889099 197.216095,308.927277 
	C196.901535,308.712708 196.780045,308.459991 196.820740,307.819214 
	C197.080414,307.067932 197.317047,306.878754 197.895737,306.995789 
z"/>
<path fill="#4A545A" opacity="1.000000" stroke="none" 
	d="
M121.256859,399.241760 
	C121.558868,399.086060 122.099915,398.670197 122.964905,398.134277 
	C122.691200,398.336700 122.093544,398.659149 121.256859,399.241760 
z"/>
<path fill="#365158" opacity="1.000000" stroke="none" 
	d="
M127.256973,394.086182 
	C127.403465,393.528595 127.877869,393.077423 128.669128,392.748260 
	C128.518951,393.311066 128.051926,393.751801 127.256973,394.086182 
z"/>
<path fill="#4A545A" opacity="1.000000" stroke="none" 
	d="
M120.239731,400.882812 
	C120.024437,400.506500 120.172943,400.084167 120.680771,399.570679 
	C120.894577,399.931915 120.749054,400.384338 120.239731,400.882812 
z"/>
<path fill="#4A545A" opacity="1.000000" stroke="none" 
	d="
M119.178177,401.921021 
	C118.982521,401.515015 119.102623,401.128693 119.566475,400.805847 
	C119.771454,401.226501 119.632690,401.583588 119.178177,401.921021 
z"/>
<path fill="#33454C" opacity="1.000000" stroke="none" 
	d="
M91.173851,430.930969 
	C90.955139,430.466125 91.062950,430.036102 91.527405,429.720337 
	C91.756165,430.211670 91.628265,430.588715 91.173851,430.930969 
z"/>
<path fill="#365158" opacity="1.000000" stroke="none" 
	d="
M247.196884,207.943024 
	C246.987335,207.551453 247.116852,207.206085 247.589554,206.880005 
	C247.800461,207.262619 247.668213,207.625931 247.196884,207.943024 
z"/>
<path fill="#FAFCFC" opacity="1.000000" stroke="none" 
	d="
M88.833092,430.846436 
	C89.090874,431.113342 89.268456,431.561829 89.157852,431.775818 
	C88.766891,431.773743 88.486534,431.557739 88.056213,431.121155 
	C88.129265,430.793579 88.352287,430.686584 88.833092,430.846436 
z"/>
<path fill="#4A545A" opacity="1.000000" stroke="none" 
	d="
M124.242249,397.350525 
	C124.022331,397.045654 124.116043,396.565826 124.583603,395.999481 
	C124.823601,396.333832 124.689735,396.754669 124.242249,397.350525 
z"/>
<path fill="#365158" opacity="1.000000" stroke="none" 
	d="
M125.239517,395.996033 
	C125.076401,395.644318 125.242523,395.323242 125.694000,394.959442 
	C125.842499,395.286713 125.705627,395.656647 125.239517,395.996033 
z"/>
<path fill="#365158" opacity="1.000000" stroke="none" 
	d="
M250.206543,205.951645 
	C250.004135,205.567444 250.141998,205.230026 250.613281,204.900482 
	C250.813416,205.271698 250.680115,205.635071 250.206543,205.951645 
z"/>
<path fill="#365158" opacity="1.000000" stroke="none" 
	d="
M126.245850,395.005188 
	C126.094948,394.672455 126.273888,394.364563 126.724007,393.991638 
	C126.855362,394.294403 126.715530,394.662201 126.245850,395.005188 
z"/>
<path fill="#365158" opacity="1.000000" stroke="none" 
	d="
M129.213074,392.915405 
	C128.803421,392.350677 129.057831,391.951019 130.046631,391.845764 
	C130.141113,392.239410 129.838654,392.552094 129.213074,392.915405 
z"/>
<path fill="#365158" opacity="1.000000" stroke="none" 
	d="
M130.787567,391.722504 
	C130.804810,391.654968 130.974319,391.451385 131.414749,391.256134 
	C131.280396,391.128662 131.031799,391.236023 130.787567,391.722504 
z"/>
<path fill="#F8FAFB" opacity="1.000000" stroke="none" 
	d="
M261.603973,153.327438 
	C261.160950,152.934677 260.482452,152.220306 261.997070,152.653564 
	C262.110596,152.877197 261.784027,153.190430 261.603973,153.327438 
z"/>
<path fill="#2E3C42" opacity="1.000000" stroke="none" 
	d="
M202.279175,304.022766 
	C202.149155,303.624817 202.381073,303.257263 202.951996,302.841827 
	C203.074356,303.213684 202.857712,303.633423 202.279175,304.022766 
z"/>
<path fill="#2E3C42" opacity="1.000000" stroke="none" 
	d="
M201.279175,305.115845 
	C201.096298,304.667664 201.267944,304.348572 201.712921,303.973816 
	C201.868729,304.360413 201.751205,304.802673 201.279175,305.115845 
z"/>
<path fill="#BFDEE3" opacity="1.000000" stroke="none" 
	d="
M199.764130,305.020630 
	C199.923111,305.361877 199.770035,305.689667 199.336731,306.049438 
	C199.188354,305.723358 199.320190,305.365295 199.764130,305.020630 
z"/>
<path fill="#FAFCFC" opacity="1.000000" stroke="none" 
	d="
M99.205475,332.209442 
	C99.237228,331.957672 99.523712,331.857788 99.897072,331.920410 
	C99.809364,332.175751 99.634781,332.268555 99.205475,332.209442 
z"/>
<path fill="#BFDEE3" opacity="1.000000" stroke="none" 
	d="
M198.766327,306.029602 
	C198.953308,306.411713 198.822464,306.765930 198.392700,307.110657 
	C198.212021,306.734680 198.330261,306.368225 198.766327,306.029602 
z"/>
<path fill="#FAFCFC" opacity="1.000000" stroke="none" 
	d="
M196.713806,307.661743 
	C196.974335,307.687378 196.965729,307.943604 196.990082,308.582642 
	C196.902145,309.142273 196.781296,309.319092 196.376617,309.345276 
	C196.210114,308.760559 196.327408,308.326447 196.713806,307.661743 
z"/>
<path fill="#4A545A" opacity="1.000000" stroke="none" 
	d="
M102.205505,418.951782 
	C101.990738,418.504669 102.107353,418.123505 102.552322,417.805878 
	C102.766090,418.252167 102.651482,418.634949 102.205505,418.951782 
z"/>
<path fill="#4A545A" opacity="1.000000" stroke="none" 
	d="
M112.153748,408.892303 
	C111.536179,408.356964 111.639793,407.932922 112.517212,407.725555 
	C112.742966,408.196625 112.603653,408.550293 112.153748,408.892303 
z"/>
<path fill="#4A545A" opacity="1.000000" stroke="none" 
	d="
M111.154907,409.893250 
	C110.537697,409.355988 110.641090,408.932404 111.515930,408.725159 
	C111.742302,409.197754 111.604385,409.552704 111.154907,409.893250 
z"/>
<path fill="#4A545A" opacity="1.000000" stroke="none" 
	d="
M110.156967,410.894836 
	C109.544022,410.356781 109.647804,409.934845 110.515694,409.727051 
	C110.741959,410.199585 110.605774,410.556000 110.156967,410.894836 
z"/>
<path fill="#4A545A" opacity="1.000000" stroke="none" 
	d="
M109.159630,411.896606 
	C108.551559,411.356262 108.655975,410.936707 109.516342,410.729340 
	C109.742233,411.202271 109.608002,411.560699 109.159630,411.896606 
z"/>
<path fill="#4A545A" opacity="1.000000" stroke="none" 
	d="
M108.163467,412.900635 
	C107.950287,412.452728 108.054176,412.036713 108.515373,411.732788 
	C108.741966,412.207397 108.611252,412.569946 108.163467,412.900635 
z"/>
<path fill="#4A545A" opacity="1.000000" stroke="none" 
	d="
M107.169876,413.908569 
	C106.953949,413.462219 107.056885,413.047394 107.513718,412.739502 
	C107.741318,413.210999 107.615021,413.575531 107.169876,413.908569 
z"/>
<path fill="#4A545A" opacity="1.000000" stroke="none" 
	d="
M106.174217,414.912903 
	C105.962120,414.469025 106.069550,414.061707 106.526482,413.752899 
	C106.748566,414.217438 106.621155,414.583435 106.174217,414.912903 
z"/>
<path fill="#4A545A" opacity="1.000000" stroke="none" 
	d="
M105.181870,415.922729 
	C104.966690,415.471893 105.075325,415.070068 105.529121,414.761292 
	C105.751419,415.226776 105.628555,415.599243 105.181870,415.922729 
z"/>
<path fill="#4A545A" opacity="1.000000" stroke="none" 
	d="
M104.188553,416.929810 
	C103.972740,416.481262 104.082664,416.084351 104.532921,415.772705 
	C104.753593,416.232452 104.633942,416.606964 104.188553,416.929810 
z"/>
<path fill="#4A545A" opacity="1.000000" stroke="none" 
	d="
M103.197937,417.941833 
	C102.981659,417.491791 103.094513,417.101959 103.541824,416.787720 
	C103.759865,417.242859 103.643463,417.622467 103.197937,417.941833 
z"/>
<path fill="#4A545A" opacity="1.000000" stroke="none" 
	d="
M113.153656,407.892395 
	C112.538139,407.358948 112.642403,406.936127 113.519478,406.728638 
	C113.744110,407.196869 113.603920,407.549713 113.153656,407.892395 
z"/>
<path fill="#4A545A" opacity="1.000000" stroke="none" 
	d="
M114.154327,406.893433 
	C113.542542,406.361938 113.647598,405.940735 114.522110,405.732727 
	C114.745522,406.197815 114.604858,406.550293 114.154327,406.893433 
z"/>
<path fill="#4A545A" opacity="1.000000" stroke="none" 
	d="
M115.156090,405.895325 
	C114.550728,405.365967 114.656792,404.947662 115.525024,404.738708 
	C115.746918,405.199768 115.606575,405.552429 115.156090,405.895325 
z"/>
<path fill="#365158" opacity="1.000000" stroke="none" 
	d="
M241.008118,211.792664 
	C240.938721,211.476730 241.194946,211.228928 241.724731,210.950195 
	C241.776779,211.233109 241.555267,211.546951 241.008118,211.792664 
z"/>
<path fill="#4A545A" opacity="1.000000" stroke="none" 
	d="
M116.158203,404.898132 
	C115.956924,404.475281 116.066231,404.064270 116.535622,403.752777 
	C116.753395,404.204865 116.611092,404.557404 116.158203,404.898132 
z"/>
<path fill="#33454C" opacity="1.000000" stroke="none" 
	d="
M97.252205,424.037354 
	C97.045609,423.594788 97.191429,423.252991 97.634262,422.902313 
	C97.822395,423.308319 97.713509,423.723236 97.252205,424.037354 
z"/>
<path fill="#4A545A" opacity="1.000000" stroke="none" 
	d="
M117.164215,403.905457 
	C116.965523,403.489014 117.077911,403.083771 117.545753,402.767883 
	C117.759239,403.210358 117.617264,403.563477 117.164215,403.905457 
z"/>
<path fill="#4A545A" opacity="1.000000" stroke="none" 
	d="
M118.170021,402.912292 
	C117.972885,402.501221 118.087914,402.102692 118.553444,401.782959 
	C118.763359,402.216095 118.622772,402.570496 118.170021,402.912292 
z"/>
<path fill="#33454C" opacity="1.000000" stroke="none" 
	d="
M96.263321,425.055298 
	C96.056007,424.606812 96.206322,424.273468 96.646774,423.920044 
	C96.831604,424.323486 96.726280,424.746918 96.263321,425.055298 
z"/>
<path fill="#33454C" opacity="1.000000" stroke="none" 
	d="
M95.276634,426.074829 
	C95.066292,425.620514 95.219917,425.293823 95.656967,424.936523 
	C96.241516,425.430847 96.140640,425.862793 95.276634,426.074829 
z"/>
<path fill="#33454C" opacity="1.000000" stroke="none" 
	d="
M94.285263,427.092773 
	C94.077057,426.636688 94.237335,426.319122 94.672775,425.957092 
	C95.266098,426.445038 95.167061,426.884338 94.285263,427.092773 
z"/>
<path fill="#1C2128" opacity="1.000000" stroke="none" 
	d="
M666.172852,495.265259 
	C664.232422,504.463165 662.508301,513.280029 660.431702,522.013000 
	C659.622864,525.414612 660.407593,526.561340 663.881348,526.304077 
	C666.864014,526.083130 669.897949,526.485535 672.869263,526.198486 
	C676.124939,525.883911 677.190247,527.376343 676.675415,530.197876 
	C675.541321,536.413391 674.163452,542.584229 673.002258,548.795227 
	C672.614441,550.869141 671.239136,550.904358 669.680969,550.903870 
	C658.517761,550.900330 647.354248,550.847778 636.191589,550.928833 
	C631.697632,550.961426 633.076416,547.819763 633.480713,545.743713 
	C635.356201,536.114990 637.490356,526.536804 639.526367,516.939209 
	C640.665222,511.570648 641.737000,506.187012 642.948914,500.835052 
	C643.578369,498.054962 642.832336,496.997131 639.805237,497.063019 
	C631.811523,497.237152 623.809204,497.231476 615.815308,497.062134 
	C613.023254,497.002991 612.207703,498.143036 611.687683,500.685181 
	C608.588257,515.836060 605.125610,530.914795 602.202026,546.098022 
	C601.423462,550.141724 599.800232,551.297424 595.973450,550.972351 
	C592.334229,550.663208 588.599609,550.529846 584.993958,550.994324 
	C579.643738,551.683472 579.161560,548.893127 579.984558,544.901794 
	C581.932373,535.455505 583.968506,526.027405 585.948242,516.587646 
	C588.713135,503.404541 591.533569,490.232330 594.160400,477.021698 
	C594.808533,473.762543 595.955811,472.384460 599.645569,472.418671 
	C621.636841,472.622650 643.632507,472.659149 665.622803,472.405670 
	C670.222778,472.352661 670.636414,474.405945 669.953003,477.787170 
	C668.799988,483.491547 667.491394,489.164490 666.172852,495.265259 
z"/>
<path fill="#1D2229" opacity="1.000000" stroke="none" 
	d="
M695.778442,517.639282 
	C696.974854,511.680603 697.849365,506.074860 699.284302,500.616455 
	C700.129700,497.400604 699.034485,496.955505 696.285522,497.084076 
	C692.794312,497.247406 689.284668,497.008606 685.792175,497.157898 
	C683.518982,497.255066 682.716553,496.262177 683.112976,494.228821 
	C684.415039,487.549957 685.790955,480.885437 687.159912,474.219788 
	C687.395203,473.074036 688.253906,472.626251 689.345825,472.565063 
	C690.010803,472.527802 690.681885,472.571564 691.343506,472.507965 
	C695.927551,472.067047 701.758057,474.550812 704.782410,471.390808 
	C707.441467,468.612549 707.220703,463.034119 708.168030,458.669861 
	C710.778442,446.643799 713.458923,434.630280 715.824036,422.555481 
	C716.409973,419.564362 717.644348,418.746552 720.455444,418.882233 
	C724.444946,419.074860 728.450745,418.927521 732.449585,418.931427 
	C738.581360,418.937408 738.978394,419.379974 737.718689,425.418884 
	C735.375549,436.652130 732.920776,447.862305 730.619934,459.104034 
	C729.759827,463.306763 726.735413,468.453888 728.758789,471.474823 
	C730.726990,474.413422 736.516602,472.403473 740.607422,472.426544 
	C743.897827,472.445099 744.576172,473.569611 743.944641,476.588501 
	C742.756104,482.270660 741.793579,488.001923 740.830872,493.728577 
	C740.401489,496.282990 739.192078,497.592651 736.489563,497.125397 
	C736.327820,497.097443 736.155640,497.108582 735.990540,497.124695 
	C731.421631,497.570465 725.587219,495.081177 722.599792,498.198700 
	C719.929321,500.985413 720.169434,506.597992 719.217163,510.983643 
	C718.334961,515.046265 717.777283,519.190308 716.690613,523.193665 
	C715.940430,525.956848 717.046875,526.331543 719.314636,526.273499 
	C722.644836,526.188293 725.986023,526.390259 729.308960,526.213684 
	C732.009949,526.070190 733.570679,526.851868 733.033813,529.782166 
	C731.866272,536.154663 730.565369,542.502563 729.384705,548.872742 
	C729.008057,550.904663 727.616455,550.919678 726.046082,550.916870 
	C715.049255,550.897339 704.052246,550.877319 693.055603,550.918396 
	C687.897522,550.937683 689.720825,547.155273 690.127441,544.920471 
	C691.763855,535.925354 693.802185,527.003235 695.778442,517.639282 
z"/>
<path fill="#1F242C" opacity="1.000000" stroke="none" 
	d="
M532.857788,418.922974 
	C539.464050,418.977417 539.545715,418.994568 538.281677,425.013916 
	C531.621948,456.728760 524.917786,488.434235 518.228516,520.142883 
	C516.942810,526.237488 516.941772,526.237366 523.139160,526.242981 
	C523.638672,526.243408 524.138184,526.242920 524.637695,526.242981 
	C534.826111,526.243530 534.833191,526.244934 532.847656,536.079224 
	C532.091248,539.825684 531.133789,543.539795 530.568298,547.313721 
	C530.137024,550.191528 528.830566,551.037354 525.946350,550.987549 
	C515.626160,550.809204 505.294189,550.700989 494.980743,551.020142 
	C490.579285,551.156372 489.922455,549.350830 490.674805,545.769348 
	C492.929840,535.034668 495.132629,524.289062 497.397278,513.556458 
	C503.573151,484.287323 509.931885,455.055023 515.814148,425.727112 
	C516.906189,420.282349 518.839172,418.005463 524.398315,418.854919 
	C527.001648,419.252716 529.716064,418.923004 532.857788,418.922974 
z"/>
<path fill="#20252D" opacity="1.000000" stroke="none" 
	d="
M629.048950,416.140900 
	C627.717468,422.404083 626.312073,428.225586 625.228516,434.106384 
	C624.808289,436.386658 623.881775,437.147797 621.639832,437.113708 
	C614.981323,437.012512 608.316162,436.941010 601.662170,437.141785 
	C598.915955,437.224670 598.493042,435.759491 598.786316,433.807281 
	C599.402222,429.706543 600.160217,425.619537 601.061462,421.571777 
	C601.716309,418.630707 604.358643,419.596558 606.033936,419.816559 
	C611.496338,420.533905 613.902466,418.655426 614.795654,412.940674 
	C616.461731,402.280823 618.904236,391.732147 621.326904,381.207031 
	C622.043457,378.093750 621.201172,377.536987 618.345642,377.459259 
	C610.343018,377.241333 610.345581,377.135559 611.993469,369.179535 
	C612.128235,368.528656 612.262207,367.877441 612.410522,367.229614 
	C614.056946,360.039642 614.066345,359.804108 621.547485,360.081268 
	C625.168579,360.215393 626.389709,358.953308 627.026611,355.571381 
	C628.748596,346.428619 630.984924,337.382690 632.703064,328.239319 
	C633.267883,325.233429 634.255615,323.951843 637.476685,324.072906 
	C643.628601,324.304047 649.802124,324.311462 655.953003,324.067230 
	C659.013428,323.945740 659.822083,325.335358 659.430237,327.840820 
	C658.814575,331.777039 657.933228,335.670898 657.228821,339.594269 
	C656.615173,343.011627 653.853088,341.959137 652.063354,341.726074 
	C646.593994,341.014008 643.530273,342.788727 643.486755,348.620911 
	C643.481934,349.271271 643.199219,349.916138 643.078003,350.569611 
	C642.534485,353.500671 640.763794,357.044800 641.822021,359.191315 
	C642.840759,361.257538 646.950073,359.786438 649.691711,359.949829 
	C651.339111,360.048004 651.998535,360.490997 651.995850,362.281799 
	C651.988831,367.012878 650.469482,371.435425 649.374207,375.927551 
	C648.771362,378.400208 646.270081,377.677063 644.680847,377.432678 
	C638.984314,376.556763 636.591248,378.546265 635.674377,384.509460 
	C634.060974,395.002625 631.353149,405.327515 629.048950,416.140900 
z"/>
<path fill="#1D232A" opacity="1.000000" stroke="none" 
	d="
M567.575989,498.625000 
	C565.816162,506.838196 564.307190,514.678589 562.486572,522.445923 
	C561.818176,525.297180 562.249573,526.485352 565.371643,526.282532 
	C568.025452,526.110107 570.741943,526.551697 573.355347,526.184753 
	C578.349792,525.483704 578.966064,527.951965 578.135315,531.945312 
	C577.018005,537.315796 575.890747,542.688965 574.991272,548.098145 
	C574.530579,550.868530 572.804749,550.940979 570.659546,550.932007 
	C560.166199,550.887939 549.665039,550.679626 539.182190,551.014465 
	C534.220459,551.172974 534.636475,548.430359 535.253113,545.391357 
	C537.071228,536.430847 539.048706,527.502808 540.948059,518.558655 
	C543.917908,504.573425 546.982056,490.606628 549.752441,476.581909 
	C550.352783,473.543091 551.374634,472.280457 554.557800,472.447662 
	C559.042725,472.683197 563.572327,472.791718 568.039978,472.428040 
	C572.645752,472.053101 572.488953,474.805725 571.940796,477.709137 
	C570.645630,484.569336 569.129883,491.387878 567.575989,498.625000 
z"/>
<path fill="#1D2229" opacity="1.000000" stroke="none" 
	d="
M652.482422,383.424377 
	C653.899536,376.834076 655.513428,370.691681 656.365784,364.445404 
	C656.918030,360.398193 658.894897,359.887634 662.341187,359.927887 
	C675.665161,360.083588 689.000977,360.272675 702.313416,359.850159 
	C707.510071,359.685211 707.746277,362.049347 706.992493,365.735992 
	C705.260437,374.206299 703.686584,382.723602 701.515381,391.083374 
	C700.385010,395.435669 701.743286,396.133881 705.654419,396.003113 
	C712.276123,395.781677 712.282532,395.974182 711.136047,402.449738 
	C709.240845,413.153198 709.240845,413.153229 698.424072,413.153198 
	C694.759460,413.153168 691.059082,412.829742 687.438843,413.230591 
	C682.335022,413.795715 682.454651,410.867462 683.140076,407.487000 
	C684.792419,399.337677 686.303101,391.145935 688.372620,383.100342 
	C689.511658,378.672241 688.763855,376.898438 683.951538,377.449738 
	C679.041626,378.012238 672.945618,375.466400 669.458435,378.563690 
	C666.229126,381.431976 666.903625,387.560181 665.866760,392.254395 
	C664.611755,397.936554 663.114197,403.583405 662.240723,409.324554 
	C661.735107,412.648376 660.212097,413.201904 657.268738,413.213898 
	C646.046448,413.259674 646.074158,413.355927 648.473328,402.385101 
	C649.823303,396.211639 651.065430,390.014587 652.482422,383.424377 
z"/>
<path fill="#1B1F26" opacity="1.000000" stroke="none" 
	d="
M581.135132,395.939087 
	C587.608459,395.939941 593.604858,396.116608 599.583618,395.867706 
	C602.619446,395.741333 603.460876,397.070312 603.049805,399.600128 
	C602.411255,403.529999 601.584167,407.430389 600.782227,411.332031 
	C600.364929,413.362122 598.691589,413.135864 597.209290,413.136841 
	C585.397400,413.144470 573.583862,413.025940 561.774536,413.198608 
	C557.113037,413.266724 558.222168,410.335602 558.704895,407.929718 
	C561.187378,395.557007 563.758240,383.201202 566.406372,370.862732 
	C568.740662,359.986450 568.803528,359.999908 580.085388,359.999939 
	C588.902710,359.999939 597.728271,360.225098 606.533752,359.902161 
	C610.739258,359.747925 611.211121,361.615326 610.573364,364.878479 
	C610.509766,365.203857 610.368896,365.514465 610.309143,365.840271 
	C608.176758,377.469269 608.177490,377.469177 596.325378,377.469482 
	C592.166260,377.469604 587.995789,377.659302 583.851929,377.408661 
	C580.871094,377.228363 579.674011,378.494659 579.204712,381.211884 
	C578.583191,384.810089 577.951660,388.427032 576.970703,391.937073 
	C575.954468,395.573456 577.562073,396.319946 581.135132,395.939087 
z"/>
<path fill="#1E2129" opacity="1.000000" stroke="none" 
	d="
M578.645020,445.722107 
	C577.441162,450.955505 577.837402,457.300446 574.868408,460.202271 
	C571.566162,463.429688 565.087769,461.108521 560.000061,461.239868 
	C553.147522,461.416718 553.082520,461.191803 554.578247,454.203644 
	C555.583923,449.504700 556.685303,444.821930 557.519165,440.092346 
	C557.939880,437.706329 558.902527,436.761566 561.415771,436.878632 
	C565.722900,437.079285 570.082947,437.283600 574.352966,436.837646 
	C579.051331,436.346863 580.285889,438.132050 579.230225,442.366516 
	C578.990417,443.328552 578.912903,444.331024 578.645020,445.722107 
z"/>
<path fill="#1A2026" opacity="1.000000" stroke="none" 
	d="
M738.918823,359.999390 
	C746.494751,360.000275 746.494751,360.000275 746.023682,366.865173 
	C745.295898,377.470490 745.295898,377.470886 735.017944,377.470337 
	C730.531982,377.470062 726.033142,377.259796 721.564453,377.536926 
	C718.398315,377.733246 717.791321,376.090240 718.197021,373.706696 
	C718.836243,369.951843 719.867676,366.265015 720.558899,362.517273 
	C720.940430,360.448944 722.015747,359.917419 723.979248,359.963837 
	C728.794800,360.077698 733.614929,360.000000 738.918823,359.999390 
z"/>
<path fill="#343327" opacity="1.000000" stroke="none" 
	d="
M439.282318,89.854614 
	C437.848755,91.620010 436.605011,91.645828 435.775085,89.785652 
	C435.315308,88.755058 435.907867,87.726105 436.925690,87.418800 
	C438.657166,86.896011 439.248993,88.044144 439.282318,89.854614 
z"/>
<path fill="#343327" opacity="1.000000" stroke="none" 
	d="
M420.495972,156.781128 
	C422.838409,156.685196 423.583496,157.722031 422.740021,159.520844 
	C422.267334,160.528946 421.086914,160.671432 420.171967,160.060898 
	C418.711060,159.086105 418.797363,157.948563 420.495972,156.781128 
z"/>
<path fill="#343327" opacity="1.000000" stroke="none" 
	d="
M416.279327,126.521912 
	C418.347565,126.627266 419.523315,127.375687 418.506439,129.322586 
	C417.973602,130.342789 416.788330,130.497635 415.903076,129.885498 
	C414.479004,128.900772 414.620605,127.722122 416.279327,126.521912 
z"/>
<path fill="#343327" opacity="1.000000" stroke="none" 
	d="
M443.890869,62.173645 
	C442.722229,59.958584 443.662781,59.099026 445.491150,59.008408 
	C446.383331,58.964188 447.079559,59.709923 447.043671,60.592030 
	C446.967651,62.459148 446.069977,63.331078 443.890869,62.173645 
z"/>
<path fill="#343327" opacity="1.000000" stroke="none" 
	d="
M405.454803,252.577682 
	C405.575684,254.888519 404.498169,255.510620 402.752167,254.885818 
	C401.898682,254.580414 401.643219,253.604614 401.957458,252.835876 
	C402.703400,251.011154 403.894379,250.850677 405.454803,252.577682 
z"/>
<path fill="#2A2A24" opacity="1.000000" stroke="none" 
	d="
M404.045349,198.920349 
	C405.511505,200.226501 405.616516,201.402588 404.079803,202.242645 
	C403.051453,202.804764 402.055084,202.335266 401.693665,201.274734 
	C401.107666,199.555374 402.060730,198.850769 404.045349,198.920349 
z"/>
<path fill="#343327" opacity="1.000000" stroke="none" 
	d="
M389.502594,231.365601 
	C390.803986,229.723480 391.947052,229.745163 392.848907,231.182632 
	C393.435699,232.117889 393.203461,233.281723 392.197723,233.710358 
	C390.380981,234.484573 389.431030,233.581421 389.502594,231.365601 
z"/>
<path fill="#2A2A24" opacity="1.000000" stroke="none" 
	d="
M458.022552,102.121475 
	C459.820312,101.220314 460.905640,101.558426 461.091217,103.359039 
	C461.216187,104.572052 460.466644,105.272392 459.298126,105.152985 
	C457.579956,104.977417 457.046021,103.974632 458.022552,102.121475 
z"/>
<path fill="#343327" opacity="1.000000" stroke="none" 
	d="
M405.795349,172.273438 
	C404.950531,174.307709 403.744293,174.761948 402.321106,173.411758 
	C401.699982,172.822464 401.757172,171.770218 402.343842,171.168533 
	C403.774475,169.701233 404.926422,170.286362 405.795349,172.273438 
z"/>
<path fill="#222422" opacity="1.000000" stroke="none" 
	d="
M437.886108,131.568024 
	C439.476868,132.684357 439.784027,133.816315 438.435760,134.828278 
	C437.591675,135.461792 436.486603,135.285995 436.002228,134.276520 
	C435.292572,132.797592 436.023438,131.859299 437.886108,131.568024 
z"/>
<path fill="#222422" opacity="1.000000" stroke="none" 
	d="
M423.741913,212.980652 
	C423.997437,210.968826 424.916412,210.318314 426.422028,211.139511 
	C427.217529,211.573395 427.432159,212.518250 426.991150,213.243500 
	C426.121826,214.673126 424.995239,214.668518 423.741913,212.980652 
z"/>
<path fill="#222422" opacity="1.000000" stroke="none" 
	d="
M467.089050,72.245544 
	C465.375824,71.002853 465.408478,69.880600 466.814819,69.002823 
	C467.543304,68.548134 468.475281,68.766998 468.917816,69.559059 
	C469.763702,71.072922 469.089935,71.975311 467.089050,72.245544 
z"/>
<path fill="#0B0C0F" opacity="1.000000" stroke="none" 
	d="
M349.223511,636.059753 
	C353.008118,653.904663 346.078522,668.141846 335.077423,680.961548 
	C330.829468,685.911682 325.094757,687.183289 318.377533,686.045288 
	C305.279572,681.651489 301.666931,676.616699 301.878357,663.179260 
	C302.022919,653.990295 302.834503,644.851379 307.129425,636.505188 
	C311.566772,627.882202 318.576416,622.474182 328.471100,622.445068 
	C337.931244,622.417236 344.846436,627.232910 349.223511,636.059753 
z"/>
<path fill="#F7C4EE" opacity="1.000000" stroke="none" 
	d="
M665.059143,480.166870 
	C661.746582,495.692657 658.547546,510.814484 655.190552,525.901123 
	C654.472778,529.126648 655.109375,530.376099 658.638550,530.070068 
	C662.109558,529.768982 665.643738,530.215332 669.119385,529.942078 
	C672.196289,529.700195 672.252502,531.080627 671.848877,533.448364 
	C670.031860,544.107971 670.072021,544.114807 659.123657,544.114807 
	C653.295105,544.114807 647.454895,543.892334 641.642151,544.195251 
	C637.952881,544.387512 637.596741,543.038269 638.287781,539.910706 
	C641.514832,525.305786 644.456543,510.637054 647.781372,496.055176 
	C648.761658,491.756256 648.140198,490.273590 643.312561,490.477325 
	C633.837158,490.877228 624.320801,490.878937 614.846191,490.470795 
	C610.346375,490.276947 608.955872,491.958771 608.160583,496.045532 
	C605.303772,510.726685 601.958618,525.312988 599.118164,539.997009 
	C598.463623,543.380371 597.158691,544.226746 593.913757,544.190430 
	C583.959778,544.079041 583.927368,544.205200 585.901428,534.691589 
	C589.649475,516.628296 593.494507,498.584747 597.154297,480.503632 
	C597.808044,477.273773 598.862122,475.941376 602.571167,475.987213 
	C622.385254,476.232178 642.204224,476.150238 662.020813,476.050751 
	C664.945190,476.036102 666.602539,476.397797 665.059143,480.166870 
z"/>
<path fill="#F7C4EE" opacity="1.000000" stroke="none" 
	d="
M702.958740,500.931152 
	C705.198181,490.590820 705.198181,490.590851 694.906006,490.590332 
	C687.392822,490.589935 687.392822,490.589905 688.938538,483.273224 
	C690.452759,476.105682 690.452759,476.105652 698.049561,476.105621 
	C708.166870,476.105591 708.201172,476.113068 710.360413,466.144409 
	C713.208801,452.994202 716.162109,439.862610 718.698425,426.651611 
	C719.362549,423.192505 720.776917,422.480591 723.938538,422.497437 
	C733.920959,422.550690 733.958008,422.445374 731.886658,432.331604 
	C729.127380,445.501282 726.468811,458.696014 723.407959,471.796082 
	C722.502625,475.670593 723.598572,476.570190 727.081116,476.117767 
	C727.735840,476.032684 728.411133,476.105530 729.076904,476.105621 
	C740.460144,476.107544 740.380371,476.089661 737.939636,486.958923 
	C737.321045,489.713715 736.231506,490.889099 733.277588,490.654602 
	C729.804077,490.378937 726.281372,490.756409 722.799866,490.536682 
	C720.163696,490.370270 718.986572,491.236755 718.455017,493.887939 
	C716.073853,505.765991 713.508240,517.607056 710.914429,529.910889 
	C716.961609,529.910889 722.720337,529.910889 728.393311,529.910889 
	C728.547607,530.615601 728.732727,530.948181 728.661072,531.210632 
	C727.527954,535.361511 728.488892,541.239197 725.435608,543.349304 
	C722.466309,545.401367 717.109497,544.057739 712.800110,544.097290 
	C706.662048,544.153625 700.523132,544.111572 693.938110,544.111572 
	C696.988525,529.561462 699.945557,515.456665 702.958740,500.931152 
z"/>
<path fill="#F9C5EF" opacity="1.000000" stroke="none" 
	d="
M530.490845,441.456268 
	C524.216675,471.097534 518.073608,500.334747 511.841949,529.993530 
	C517.843506,529.993530 523.467163,529.993530 529.002930,529.993530 
	C529.117554,530.510254 529.192627,530.669617 529.181152,530.822449 
	C528.182495,544.101807 528.182068,544.101685 514.968933,544.101624 
	C509.475067,544.101624 503.978851,544.006287 498.488342,544.142273 
	C495.802612,544.208740 494.661316,543.894165 495.364960,540.611633 
	C503.479065,502.758820 511.471680,464.879730 519.363892,426.979980 
	C520.059021,423.641571 521.210022,422.387512 524.842590,422.470428 
	C534.586182,422.692688 534.578125,422.481079 532.415283,432.259308 
	C531.769348,435.179626 531.217163,438.120667 530.490845,441.456268 
z"/>
<path fill="#F5C3EC" opacity="1.000000" stroke="none" 
	d="
M605.408691,422.067261 
	C615.183716,422.052856 615.144958,422.044647 617.132935,412.644531 
	C619.644836,400.766968 622.084229,388.870758 624.856934,377.053467 
	C625.844360,372.845001 624.924194,371.309570 620.543457,371.956940 
	C618.596313,372.244690 616.571228,372.005524 614.676025,372.005524 
	C613.613708,370.470764 614.819641,369.317139 614.830200,368.088806 
	C614.870056,363.444824 617.126099,361.585236 621.710938,362.402435 
	C626.487549,363.253906 628.661804,361.556152 629.420349,356.363281 
	C630.715454,347.497040 633.162231,338.804688 634.842285,329.985382 
	C635.325317,327.449493 636.310120,326.673950 638.744629,326.746216 
	C643.406250,326.884552 648.078430,326.687561 652.738464,326.850769 
	C654.017517,326.895569 656.725098,325.654846 656.160583,328.696198 
	C655.671936,331.328735 656.718323,334.819244 653.018433,336.148590 
	C652.722229,336.255035 652.355896,336.154083 652.023682,336.174530 
	C642.788330,336.742371 642.808594,336.747040 640.939880,345.875793 
	C640.106201,349.948395 639.250854,354.019836 638.258057,358.055573 
	C637.531189,361.010406 637.714233,363.030243 641.564636,362.425110 
	C642.052490,362.348419 642.656677,362.237976 643.046753,362.445068 
	C644.893066,363.425446 648.655151,360.123596 648.776245,364.587036 
	C648.934143,370.413696 647.265320,372.377380 642.365784,371.901886 
	C636.987305,371.379913 634.751404,372.833435 633.713806,378.627563 
	C630.784241,394.987274 626.823120,411.159698 623.552368,427.462860 
	C622.842041,431.003326 621.440918,432.079498 617.975830,431.818329 
	C613.833435,431.506165 609.636963,431.545013 605.487732,431.807587 
	C602.178162,432.016998 601.044250,430.737976 602.235657,427.829437 
	C603.032471,425.884247 601.790100,422.890900 605.408691,422.067261 
z"/>
<path fill="#F8C5EF" opacity="1.000000" stroke="none" 
	d="
M572.524475,538.493042 
	C572.418457,543.102966 570.509644,544.416443 566.224792,544.224609 
	C557.443481,543.831543 548.632263,544.106689 539.339661,544.106689 
	C542.433777,529.309692 545.413269,515.013916 548.415527,500.722870 
	C549.918335,493.569397 551.598145,486.449463 552.915344,479.262543 
	C553.381897,476.716919 554.467163,476.129700 556.869080,476.052979 
	C568.088806,475.694580 568.101013,475.625244 565.802002,486.473969 
	C563.012329,499.637939 560.296204,512.819031 557.320984,525.941101 
	C556.547302,529.353333 557.362732,530.461060 560.763794,530.045471 
	C562.403992,529.845032 564.088867,530.010986 565.753540,530.010986 
	C574.009338,530.010986 574.009338,530.010986 572.524475,538.493042 
z"/>
<path fill="#F3C1EA" opacity="1.000000" stroke="none" 
	d="
M698.769775,362.393585 
	C703.512634,361.790344 704.675903,363.164429 703.553894,367.599976 
	C701.233032,376.774200 699.612793,386.123566 697.481567,395.349365 
	C696.931458,397.730530 697.520813,398.398621 699.743530,398.244446 
	C700.572754,398.186920 701.409424,398.235779 702.242737,398.237640 
	C709.501099,398.253906 709.752502,398.719757 707.435974,405.687744 
	C706.836853,407.489899 705.977539,407.931366 704.259888,407.902039 
	C699.261536,407.816620 694.254211,407.717346 689.263428,407.929413 
	C686.172852,408.060760 685.631531,406.988007 686.264709,404.164398 
	C688.627014,393.630219 690.811401,383.056091 693.164307,372.020050 
	C684.999023,372.020050 677.199158,372.125427 669.404724,371.967346 
	C666.356018,371.905518 666.466431,374.043701 666.070251,375.883698 
	C664.042236,385.303558 662.076477,394.736786 660.067749,404.160858 
	C659.319946,407.669342 656.255737,409.076477 651.658691,407.820709 
	C648.172546,406.868378 650.706177,404.497009 650.986633,403.047943 
	C653.293640,391.127716 656.023315,379.287415 658.213135,367.347382 
	C658.979492,363.168518 660.780212,362.184143 664.801758,362.290863 
	C675.960205,362.587036 687.131653,362.393555 698.769775,362.393585 
z"/>
<path fill="#F2C0E9" opacity="1.000000" stroke="none" 
	d="
M582.044983,362.376587 
	C589.525635,362.376587 596.515076,362.292542 603.499329,362.446381 
	C604.925842,362.477814 608.140625,361.297485 607.403015,364.126068 
	C606.688599,366.865906 608.824036,371.926514 603.109802,372.004669 
	C596.123474,372.100220 589.129456,372.188263 582.149780,371.953247 
	C579.134338,371.851746 577.748596,372.716675 577.202332,375.754761 
	C576.056885,382.125458 574.652039,388.452332 573.226379,394.768463 
	C572.655640,397.296997 573.096558,398.366516 576.015686,398.282684 
	C582.665100,398.091736 589.325745,398.137146 595.977051,398.291931 
	C597.409363,398.325256 600.618347,397.072113 599.795166,400.185394 
	C599.088379,402.858612 601.020630,407.745331 595.735168,407.828400 
	C584.434387,408.006012 573.128906,407.882782 561.173645,407.882782 
	C563.269653,397.731018 565.285828,387.921478 567.324402,378.116577 
	C568.034119,374.703125 569.186890,371.330322 569.445557,367.886993 
	C569.806335,363.083588 572.131287,361.649750 576.567078,362.336060 
	C578.191833,362.587463 579.888245,362.376556 582.044983,362.376587 
z"/>
<path fill="#F3C1EA" opacity="1.000000" stroke="none" 
	d="
M570.464233,454.808777 
	C566.218628,454.820343 562.420349,454.820343 558.398804,454.820343 
	C558.657593,453.062775 558.804810,451.755981 559.046936,450.467041 
	C561.073059,439.681580 561.503296,439.368500 572.481934,440.554596 
	C573.407959,440.654633 575.112915,440.472870 574.811829,441.618774 
	C573.649048,446.044312 574.951172,451.236694 570.464233,454.808777 
z"/>
<path fill="#F0BFE7" opacity="1.000000" stroke="none" 
	d="
M741.352661,371.914093 
	C735.425476,372.017303 729.927002,371.869873 724.443542,372.092773 
	C721.334351,372.219177 721.358521,371.292084 721.621582,368.456879 
	C722.102295,363.276184 724.406555,361.743835 729.284424,362.292877 
	C732.735718,362.681305 736.275085,362.524323 739.758606,362.323730 
	C743.153198,362.128265 744.993103,362.790649 743.381409,366.669067 
	C742.693970,368.323212 743.201355,370.369659 741.352661,371.914093 
z"/>
</svg>