<?xml version="1.0" encoding="UTF-8"?>
<!DOCTYPE svg PUBLIC "-//W3C//DTD SVG 1.1//EN" "http://www.w3.org/Graphics/SVG/1.1/DTD/svg11.dtd">
<svg xmlns="http://www.w3.org/2000/svg" version="1.1" width="300px" height="85px" style="shape-rendering:geometricPrecision; text-rendering:geometricPrecision; image-rendering:optimizeQuality; fill-rule:evenodd; clip-rule:evenodd" xmlns:xlink="http://www.w3.org/1999/xlink">
<g><path style="opacity:0.894" fill="#ffc326" d="M 40.5,-0.5 C 41.5,-0.5 42.5,-0.5 43.5,-0.5C 43.5,-0.166667 43.5,0.166667 43.5,0.5C 29.5,15.1667 15.1667,29.5 0.5,43.5C 0.166667,43.5 -0.166667,43.5 -0.5,43.5C -0.5,42.5 -0.5,41.5 -0.5,40.5C 13.5,27.1667 27.1667,13.5 40.5,-0.5 Z"/></g>
<g><path style="opacity:0.974" fill="#ffbe25" d="M 43.5,0.5 C 44.1667,0.5 44.5,0.833333 44.5,1.5C 30.5,16.1667 16.1667,30.5 1.5,44.5C 0.833333,44.5 0.5,44.1667 0.5,43.5C 15.1667,29.5 29.5,15.1667 43.5,0.5 Z"/></g>
<g><path style="opacity:0.969" fill="#ffb925" d="M 44.5,1.5 C 45.5,1.83333 46.1667,2.5 46.5,3.5C 31.8333,17.5 17.5,31.8333 3.5,46.5C 2.5,46.1667 1.83333,45.5 1.5,44.5C 16.1667,30.5 30.5,16.1667 44.5,1.5 Z"/></g>
<g><path style="opacity:0.98" fill="#feb224" d="M 46.5,3.5 C 47.1667,3.5 47.5,3.83333 47.5,4.5C 33.5,19.1667 19.1667,33.5 4.5,47.5C 3.83333,47.5 3.5,47.1667 3.5,46.5C 17.5,31.8333 31.8333,17.5 46.5,3.5 Z"/></g>
<g><path style="opacity:0.969" fill="#feac23" d="M 47.5,4.5 C 48.5,4.83333 49.1667,5.5 49.5,6.5C 34.8333,20.5 20.5,34.8333 6.5,49.5C 5.5,49.1667 4.83333,48.5 4.5,47.5C 19.1667,33.5 33.5,19.1667 47.5,4.5 Z"/></g>
<g><path style="opacity:0.98" fill="#fea623" d="M 49.5,6.5 C 50.1667,6.5 50.5,6.83333 50.5,7.5C 36.5,22.1667 22.1667,36.5 7.5,50.5C 6.83333,50.5 6.5,50.1667 6.5,49.5C 20.5,34.8333 34.8333,20.5 49.5,6.5 Z"/></g>
<g><path style="opacity:0.969" fill="#fea022" d="M 50.5,7.5 C 51.5,7.83333 52.1667,8.5 52.5,9.5C 37.8333,23.5 23.5,37.8333 9.5,52.5C 8.5,52.1667 7.83333,51.5 7.5,50.5C 22.1667,36.5 36.5,22.1667 50.5,7.5 Z"/></g>
<g><path style="opacity:0.814" fill="#ee8c00" d="M 76.5,8.5 C 79.7441,10.0713 82.4108,12.4046 84.5,15.5C 82.5,18.1667 80.1667,20.5 77.5,22.5C 74.8333,20.5 72.5,18.1667 70.5,15.5C 72.5227,13.1472 74.5227,10.8138 76.5,8.5 Z"/></g>
<g><path style="opacity:0.98" fill="#fd9922" d="M 52.5,9.5 C 53.1667,9.5 53.5,9.83333 53.5,10.5C 39.5,25.1667 25.1667,39.5 10.5,53.5C 9.83333,53.5 9.5,53.1667 9.5,52.5C 23.5,37.8333 37.8333,23.5 52.5,9.5 Z"/></g>
<g><path style="opacity:0.96" fill="#fd9221" d="M 53.5,10.5 C 54.5,10.8333 55.1667,11.5 55.5,12.5C 47.1667,20.1667 39.1667,28.1667 31.5,36.5C 30.1667,38.5 28.5,40.1667 26.5,41.5C 21.5,45.8333 16.8333,50.5 12.5,55.5C 11.5,55.1667 10.8333,54.5 10.5,53.5C 25.1667,39.5 39.5,25.1667 53.5,10.5 Z"/></g>
<g><path style="opacity:0.959" fill="#fd8d20" d="M 55.5,12.5 C 56.1667,12.5 56.5,12.8333 56.5,13.5C 48.8333,21.5 41.1667,29.5 33.5,37.5C 32.8333,37.1667 32.1667,36.8333 31.5,36.5C 39.1667,28.1667 47.1667,20.1667 55.5,12.5 Z"/></g>
<g><path style="opacity:0.856" fill="#323332" d="M 178.5,12.5 C 182.167,12.5 185.833,12.5 189.5,12.5C 189.5,27.1667 189.5,41.8333 189.5,56.5C 185.833,56.5 182.167,56.5 178.5,56.5C 178.5,41.8333 178.5,27.1667 178.5,12.5 Z"/></g>
<g><path style="opacity:0.873" fill="#323332" d="M 193.5,12.5 C 197.167,12.5 200.833,12.5 204.5,12.5C 204.334,16.8461 204.501,21.1794 205,25.5C 209.609,23.4896 214.442,22.9896 219.5,24C 221.815,25.1094 223.315,26.9427 224,29.5C 224.5,38.4938 224.666,47.4938 224.5,56.5C 220.833,56.5 217.167,56.5 213.5,56.5C 213.666,48.8261 213.5,41.1594 213,33.5C 210.226,32.477 207.393,32.477 204.5,33.5C 204.5,41.1667 204.5,48.8333 204.5,56.5C 200.833,56.5 197.167,56.5 193.5,56.5C 193.5,41.8333 193.5,27.1667 193.5,12.5 Z"/></g>
<g><path style="opacity:0.803" fill="#323332" d="M 228.5,12.5 C 232.167,12.5 235.833,12.5 239.5,12.5C 239.5,15.5 239.5,18.5 239.5,21.5C 235.833,21.5 232.167,21.5 228.5,21.5C 228.5,18.5 228.5,15.5 228.5,12.5 Z"/></g>
<g><path style="opacity:0.958" fill="#fd8720" d="M 56.5,13.5 C 57.5,13.8333 58.1667,14.5 58.5,15.5C 50.5,23.1667 42.5,30.8333 34.5,38.5C 33.8333,38.5 33.5,38.1667 33.5,37.5C 41.1667,29.5 48.8333,21.5 56.5,13.5 Z"/></g>
<g><path style="opacity:0.958" fill="#fd7f1f" d="M 58.5,15.5 C 59.5,15.8333 60.1667,16.5 60.5,17.5C 52.5,25.1667 44.5,32.8333 36.5,40.5C 35.5,40.1667 34.8333,39.5 34.5,38.5C 42.5,30.8333 50.5,23.1667 58.5,15.5 Z"/></g>
<g><path style="opacity:0.933" fill="#323332" d="M 299.5,23.5 C 299.5,26.5 299.5,29.5 299.5,32.5C 296.5,32.5 293.5,32.5 290.5,32.5C 290.334,36.8461 290.501,41.1794 291,45.5C 293.719,46.4438 296.552,46.7771 299.5,46.5C 299.5,49.5 299.5,52.5 299.5,55.5C 295.22,56.5396 290.887,56.7062 286.5,56C 284.714,55.2155 283.214,54.0488 282,52.5C 280.58,45.9504 280.08,39.2837 280.5,32.5C 279.167,32.5 277.833,32.5 276.5,32.5C 276.5,29.5 276.5,26.5 276.5,23.5C 280.803,23.2648 282.47,20.9315 281.5,16.5C 284.5,16.5 287.5,16.5 290.5,16.5C 290.5,18.8333 290.5,21.1667 290.5,23.5C 293.5,23.5 296.5,23.5 299.5,23.5 Z"/></g>
<g><path style="opacity:0.958" fill="#fc791f" d="M 60.5,17.5 C 61.1667,17.5 61.5,17.8333 61.5,18.5C 53.5,26.1667 45.5,33.8333 37.5,41.5C 36.8333,41.5 36.5,41.1667 36.5,40.5C 44.5,32.8333 52.5,25.1667 60.5,17.5 Z"/></g>
<g><path style="opacity:0.958" fill="#fc741e" d="M 61.5,18.5 C 62.1667,18.5 62.5,18.8333 62.5,19.5C 54.8333,27.5 47.1667,35.5 39.5,43.5C 38.5,43.1667 37.8333,42.5 37.5,41.5C 45.5,33.8333 53.5,26.1667 61.5,18.5 Z"/></g>
<g><path style="opacity:0.958" fill="#fc6e1d" d="M 62.5,19.5 C 63.5,19.8333 64.1667,20.5 64.5,21.5C 56.5,29.1667 48.5,36.8333 40.5,44.5C 39.8333,44.5 39.5,44.1667 39.5,43.5C 47.1667,35.5 54.8333,27.5 62.5,19.5 Z"/></g>
<g><path style="opacity:0.78" fill="#fc691c" d="M 64.5,21.5 C 58.0557,29.4685 50.7224,37.3019 42.5,45C 41.5632,45.6917 40.8966,45.525 40.5,44.5C 48.5,36.8333 56.5,29.1667 64.5,21.5 Z"/></g>
<g><path style="opacity:0.902" fill="#323332" d="M 122.5,23.5 C 128.167,23.5 133.833,23.5 139.5,23.5C 139.5,26.5 139.5,29.5 139.5,32.5C 135.116,32.1744 130.783,32.5078 126.5,33.5C 129.629,35.0216 132.963,35.855 136.5,36C 138.002,36.5831 139.335,37.4164 140.5,38.5C 141.6,42.4425 141.767,46.4425 141,50.5C 140.215,52.286 139.049,53.786 137.5,55C 131.277,56.5815 124.944,56.9148 118.5,56C 116.656,53.1963 115.989,50.0297 116.5,46.5C 120.819,47.2488 125.152,47.4155 129.5,47C 129.957,46.586 130.291,46.086 130.5,45.5C 127.313,44.1345 123.98,43.3012 120.5,43C 116.061,40.0239 114.561,35.8572 116,30.5C 117.018,26.9853 119.185,24.652 122.5,23.5 Z"/></g>
<g><path style="opacity:0.916" fill="#323332" d="M 152.5,23.5 C 171.188,20.2048 178.688,27.8715 175,46.5C 174.3,50.0662 172.467,52.8995 169.5,55C 146.6,59.7605 138.766,50.9272 146,28.5C 147.805,26.1743 149.972,24.5077 152.5,23.5 Z M 157.5,32.5 C 162.91,31.6312 165.577,33.9646 165.5,39.5C 165.06,41.7649 164.394,43.9316 163.5,46C 160.571,46.7772 157.737,46.6105 155,45.5C 154.333,41.8333 154.333,38.1667 155,34.5C 155.995,33.9341 156.828,33.2674 157.5,32.5 Z"/></g>
<g><path style="opacity:0.853" fill="#323332" d="M 228.5,23.5 C 232.167,23.5 235.833,23.5 239.5,23.5C 239.5,34.5 239.5,45.5 239.5,56.5C 235.833,56.5 232.167,56.5 228.5,56.5C 228.5,45.5 228.5,34.5 228.5,23.5 Z"/></g>
<g><path style="opacity:0.905" fill="#323332" d="M 243.5,23.5 C 246.5,23.5 249.5,23.5 252.5,23.5C 252.351,24.552 252.517,25.552 253,26.5C 255.653,24.0593 258.82,23.0593 262.5,23.5C 266.807,22.8092 270.307,24.1425 273,27.5C 274.42,37.0862 274.92,46.7529 274.5,56.5C 270.833,56.5 267.167,56.5 263.5,56.5C 263.666,49.1591 263.5,41.8258 263,34.5C 260.075,31.9406 257.075,31.9406 254,34.5C 253.5,41.8258 253.334,49.1591 253.5,56.5C 250.167,56.5 246.833,56.5 243.5,56.5C 243.5,45.5 243.5,34.5 243.5,23.5 Z"/></g>
<g><path style="opacity:0.652" fill="#fb4d1a" d="M 71.5,28.5 C 57.5,43.1667 43.1667,57.5 28.5,71.5C 27.8333,71.5 27.5,71.1667 27.5,70.5C 31.8333,65.8333 36.1667,61.1667 40.5,56.5C 50.8333,47.1667 61.1667,37.8333 71.5,28.5 Z"/></g>
<g><path style="opacity:0.969" fill="#fb4819" d="M 71.5,28.5 C 72.5,28.8333 73.1667,29.5 73.5,30.5C 58.8333,44.5 44.5,58.8333 30.5,73.5C 29.5,73.1667 28.8333,72.5 28.5,71.5C 43.1667,57.5 57.5,43.1667 71.5,28.5 Z"/></g>
<g><path style="opacity:0.98" fill="#fa4219" d="M 73.5,30.5 C 74.1667,30.5 74.5,30.8333 74.5,31.5C 60.5,46.1667 46.1667,60.5 31.5,74.5C 30.8333,74.5 30.5,74.1667 30.5,73.5C 44.5,58.8333 58.8333,44.5 73.5,30.5 Z"/></g>
<g><path style="opacity:0.969" fill="#fa3c18" d="M 74.5,31.5 C 75.5,31.8333 76.1667,32.5 76.5,33.5C 61.8333,47.5 47.5,61.8333 33.5,76.5C 32.5,76.1667 31.8333,75.5 31.5,74.5C 46.1667,60.5 60.5,46.1667 74.5,31.5 Z"/></g>
<g><path style="opacity:0.98" fill="#fa3517" d="M 76.5,33.5 C 77.1667,33.5 77.5,33.8333 77.5,34.5C 63.5,49.1667 49.1667,63.5 34.5,77.5C 33.8333,77.5 33.5,77.1667 33.5,76.5C 47.5,61.8333 61.8333,47.5 76.5,33.5 Z"/></g>
<g><path style="opacity:0.969" fill="#fa2f17" d="M 77.5,34.5 C 78.5,34.8333 79.1667,35.5 79.5,36.5C 64.8333,50.5 50.5,64.8333 36.5,79.5C 35.5,79.1667 34.8333,78.5 34.5,77.5C 49.1667,63.5 63.5,49.1667 77.5,34.5 Z"/></g>
<g><path style="opacity:0.98" fill="#fa2916" d="M 79.5,36.5 C 80.1667,36.5 80.5,36.8333 80.5,37.5C 66.5,52.1667 52.1667,66.5 37.5,80.5C 36.8333,80.5 36.5,80.1667 36.5,79.5C 50.5,64.8333 64.8333,50.5 79.5,36.5 Z"/></g>
<g><path style="opacity:0.974" fill="#f92316" d="M 80.5,37.5 C 81.5,37.8333 82.1667,38.5 82.5,39.5C 67.8333,53.5 53.5,67.8333 39.5,82.5C 38.5,82.1667 37.8333,81.5 37.5,80.5C 52.1667,66.5 66.5,52.1667 80.5,37.5 Z"/></g>
<g><path style="opacity:0.98" fill="#f91d15" d="M 82.5,39.5 C 83.1667,39.5 83.5,39.8333 83.5,40.5C 69.5,55.1667 55.1667,69.5 40.5,83.5C 39.8333,83.5 39.5,83.1667 39.5,82.5C 53.5,67.8333 67.8333,53.5 82.5,39.5 Z"/></g>
<g><path style="opacity:0.669" fill="#f91714" d="M 83.5,40.5 C 84.525,40.8966 84.6917,41.5632 84,42.5C 69.9648,56.3681 56.1314,70.3681 42.5,84.5C 41.8333,84.5 41.1667,84.5 40.5,84.5C 40.5,84.1667 40.5,83.8333 40.5,83.5C 55.1667,69.5 69.5,55.1667 83.5,40.5 Z"/></g>
<g><path style="opacity:0.941" fill="#fd8d20" d="M 26.5,41.5 C 26.8333,42.1667 27.1667,42.8333 27.5,43.5C 22.8333,47.8333 18.1667,52.1667 13.5,56.5C 12.8333,56.5 12.5,56.1667 12.5,55.5C 16.8333,50.5 21.5,45.8333 26.5,41.5 Z"/></g>
<g><path style="opacity:0.936" fill="#fd8720" d="M 27.5,43.5 C 28.1667,43.5 28.5,43.8333 28.5,44.5C 24.1667,49.1667 19.8333,53.8333 15.5,58.5C 14.5,58.1667 13.8333,57.5 13.5,56.5C 18.1667,52.1667 22.8333,47.8333 27.5,43.5 Z"/></g>
<g><path style="opacity:0.936" fill="#fd7f1f" d="M 28.5,44.5 C 29.5,44.8333 30.1667,45.5 30.5,46.5C 26.1667,51.1667 21.8333,55.8333 17.5,60.5C 16.5,60.1667 15.8333,59.5 15.5,58.5C 19.8333,53.8333 24.1667,49.1667 28.5,44.5 Z"/></g>
<g><path style="opacity:0.938" fill="#fc791f" d="M 30.5,46.5 C 31.1667,46.5 31.5,46.8333 31.5,47.5C 27.1667,52.1667 22.8333,56.8333 18.5,61.5C 17.8333,61.5 17.5,61.1667 17.5,60.5C 21.8333,55.8333 26.1667,51.1667 30.5,46.5 Z"/></g>
<g><path style="opacity:0.939" fill="#fc741e" d="M 31.5,47.5 C 32.5,47.8333 33.1667,48.5 33.5,49.5C 28.8333,53.8333 24.1667,58.1667 19.5,62.5C 18.8333,62.5 18.5,62.1667 18.5,61.5C 22.8333,56.8333 27.1667,52.1667 31.5,47.5 Z"/></g>
<g><path style="opacity:0.936" fill="#fc6e1d" d="M 33.5,49.5 C 34.1667,49.5 34.5,49.8333 34.5,50.5C 30.1667,55.1667 25.8333,59.8333 21.5,64.5C 20.5,64.1667 19.8333,63.5 19.5,62.5C 24.1667,58.1667 28.8333,53.8333 33.5,49.5 Z"/></g>
<g><path style="opacity:0.938" fill="#fc671d" d="M 34.5,50.5 C 35.5,50.8333 36.1667,51.5 36.5,52.5C 32.1667,57.1667 27.8333,61.8333 23.5,66.5C 22.5,66.1667 21.8333,65.5 21.5,64.5C 25.8333,59.8333 30.1667,55.1667 34.5,50.5 Z"/></g>
<g><path style="opacity:0.938" fill="#fc611b" d="M 36.5,52.5 C 37.1667,52.5 37.5,52.8333 37.5,53.5C 33.1667,58.1667 28.8333,62.8333 24.5,67.5C 23.8333,67.5 23.5,67.1667 23.5,66.5C 27.8333,61.8333 32.1667,57.1667 36.5,52.5 Z"/></g>
<g><path style="opacity:0.939" fill="#fb5b1b" d="M 37.5,53.5 C 38.5,53.8333 39.1667,54.5 39.5,55.5C 34.8333,59.8333 30.1667,64.1667 25.5,68.5C 24.8333,68.5 24.5,68.1667 24.5,67.5C 28.8333,62.8333 33.1667,58.1667 37.5,53.5 Z"/></g>
<g><path style="opacity:0.936" fill="#fb541a" d="M 39.5,55.5 C 40.1667,55.5 40.5,55.8333 40.5,56.5C 36.1667,61.1667 31.8333,65.8333 27.5,70.5C 26.5,70.1667 25.8333,69.5 25.5,68.5C 30.1667,64.1667 34.8333,59.8333 39.5,55.5 Z"/></g>
</svg>
