<?xml version="1.0" standalone="no"?>
<!DOCTYPE svg PUBLIC "-//W3C//DTD SVG 20010904//EN"
 "http://www.w3.org/TR/2001/REC-SVG-20010904/DTD/svg10.dtd">
<svg version="1.0" xmlns="http://www.w3.org/2000/svg"
 width="300.000000pt" height="85.000000pt" viewBox="0 0 300.000000 85.000000"
 preserveAspectRatio="xMidYMid meet">

<g transform="translate(0.000000,85.000000) scale(0.100000,-0.100000)"
fill="#000000" stroke="none">
<path d="M1800 500 l0 -210 45 0 45 0 0 210 0 210 -45 0 -45 0 0 -210z"/>
<path d="M1950 500 l0 -210 45 0 44 0 3 113 3 112 50 0 50 0 3 -112 3 -113 44
0 45 0 0 135 c0 121 -2 137 -20 155 -33 33 -79 37 -157 14 -22 -6 -23 -4 -23
55 l0 61 -45 0 -45 0 0 -210z"/>
<path d="M2290 675 l0 -35 50 0 50 0 0 35 0 35 -50 0 -50 0 0 -35z"/>
<path d="M2826 664 c-3 -9 -6 -25 -6 -36 0 -11 -8 -22 -20 -25 -16 -4 -20 -14
-20 -44 0 -28 4 -39 15 -39 12 0 15 -15 15 -75 0 -104 17 -141 70 -155 23 -6
60 -8 81 -5 39 7 39 7 39 52 0 40 -2 44 -21 38 -11 -4 -31 -4 -45 -1 -23 6
-24 11 -24 76 l0 69 43 3 c41 3 42 4 45 41 l3 37 -45 0 -46 0 0 40 c0 40 0 40
-39 40 -26 0 -41 -5 -45 -16z"/>
<path d="M1223 595 c-40 -17 -53 -42 -53 -98 0 -56 19 -74 91 -84 38 -6 54
-13 54 -23 0 -12 -14 -15 -68 -15 l-67 0 0 -41 0 -42 56 -7 c124 -15 178 18
178 111 1 66 -11 79 -87 89 -63 9 -68 11 -60 31 4 12 19 15 67 13 l61 -3 3 34
c2 19 -2 36 -10 41 -21 14 -130 10 -165 -6z"/>
<path d="M1533 603 c-32 -6 -72 -51 -79 -89 -3 -19 -4 -64 -2 -101 4 -58 8
-69 35 -93 71 -63 222 -44 254 32 21 50 17 157 -7 199 -29 49 -108 70 -201 52z
m115 -95 c18 -18 15 -103 -4 -122 -23 -24 -70 -20 -88 6 -18 26 -21 80 -6 109
12 22 78 27 98 7z"/>
<path d="M2565 595 c-19 -10 -31 -12 -33 -6 -2 6 -24 11 -48 11 l-44 0 0 -155
0 -155 50 0 50 0 0 109 c0 118 1 121 60 121 41 0 50 -24 50 -134 l0 -96 45 0
45 0 0 129 c0 121 -2 132 -23 157 -30 34 -106 44 -152 19z"/>
<path d="M2300 445 l0 -155 45 0 45 0 0 155 0 155 -45 0 -45 0 0 -155z"/>
<path d="M574 409 c-76 -76 -143 -139 -148 -139 -6 0 -22 11 -36 25 l-26 25
-61 -63 -62 -62 89 -95 89 -95 213 212 212 212 -29 32 c-17 17 -46 44 -66 59
l-35 29 -140 -140z"/>
</g>
</svg>
