<svg version="1.1" xml:space="preserve" xmlns:xlink="http://www.w3.org/1999/xlink" xmlns="http://www.w3.org/2000/svg" width="24" height="24" viewBox="0 0 24 24"><defs id="defs13"><linearGradient id="linearGradient27"><stop style="stop-color:#f91d16;stop-opacity:1" offset="0" id="stop28"/><stop style="stop-color:#fc711d;stop-opacity:1" offset=".5" id="stop30"/><stop style="stop-color:#ffc524;stop-opacity:1" offset="1" id="stop29"/></linearGradient><linearGradient xlink:href="#linearGradient27" id="linearGradient29" x1="62.13" y1="62.38" x2="21.27" y2="20.64" gradientUnits="userSpaceOnUse" gradientTransform="translate(3 3.03) scale(.2128)"/></defs><path d="M11.9 3.03 3 11.93v.11l1.6 1.59 1.5 1.5.61.61L9 18.02l1.86 1.85 1.07 1.07c.06.05.1.05.16 0l8.83-8.83c.05-.06.05-.1 0-.16l-1.2-1.21-1.43-1.43c-.05-.05-.1-.05-.16 0l-6.04 6.04c-.04.05-.09.06-.15.03a.4.4 0 0 1-.16-.15l-2.22-2.21-.8-.8a.41.41 0 0 1-.13-.14c-.03-.06-.02-.1.02-.15l1.16-1.16c.05-.05.1-.05.15 0l.28.25 1.69 1.67c.05.06.1.06.16 0L16.79 8c.06-.06.06-.12 0-.17l-1.68-1.69-1.47-1.48-1.61-1.62Zm7.7 2.08c-.02 0-.04 0-.05.02l-1.34 1.34a.07.07 0 0 0 0 .09l1.34 1.33c.02.03.07.03.1 0l1.33-1.33a.07.07 0 0 0 0-.1l-1.34-1.33a.07.07 0 0 0-.04-.02z" style="fill:url(#linearGradient29);fill-opacity:1;stroke-width:.212774" id="path22"/></svg>