<?xml version="1.0" encoding="UTF-8"?>
<!DOCTYPE svg PUBLIC "-//W3C//DTD SVG 1.1//EN" "http://www.w3.org/Graphics/SVG/1.1/DTD/svg11.dtd">
<svg xmlns="http://www.w3.org/2000/svg" version="1.1" width="85px" height="85px" style="shape-rendering:geometricPrecision; text-rendering:geometricPrecision; image-rendering:optimizeQuality; fill-rule:evenodd; clip-rule:evenodd" xmlns:xlink="http://www.w3.org/1999/xlink">
<g><path style="opacity:0.905" fill="#ffc426" d="M 40.5,-0.5 C 41.1667,-0.5 41.8333,-0.5 42.5,-0.5C 42.6495,0.551975 42.4828,1.55198 42,2.5C 28.8333,15.6667 15.6667,28.8333 2.5,42C 1.55198,42.4828 0.551975,42.6495 -0.5,42.5C -0.5,41.8333 -0.5,41.1667 -0.5,40.5C 13.5,27.1667 27.1667,13.5 40.5,-0.5 Z"/></g>
<g><path style="opacity:0.996" fill="#ffbe24" d="M 42.5,-0.5 C 42.8333,-0.5 43.1667,-0.5 43.5,-0.5C 44.1667,0.5 44.8333,1.5 45.5,2.5C 30.919,15.5782 16.7524,29.2448 3,43.5C 2.53566,44.0944 2.36899,44.7611 2.5,45.5C 1.5,44.8333 0.5,44.1667 -0.5,43.5C -0.5,43.1667 -0.5,42.8333 -0.5,42.5C 0.551975,42.6495 1.55198,42.4828 2.5,42C 15.6667,28.8333 28.8333,15.6667 42,2.5C 42.4828,1.55198 42.6495,0.551975 42.5,-0.5 Z"/></g>
<g><path style="opacity:0.997" fill="#ffb924" d="M 45.5,2.5 C 32.4218,17.081 18.7552,31.2476 4.5,45C 3.90558,45.4643 3.23891,45.631 2.5,45.5C 2.36899,44.7611 2.53566,44.0944 3,43.5C 16.7524,29.2448 30.919,15.5782 45.5,2.5 Z"/></g>
<g><path style="opacity:0.994" fill="#feb123" d="M 45.5,2.5 C 46.8333,3.16667 47.8333,4.16667 48.5,5.5C 33.919,18.5782 19.7524,32.2448 6,46.5C 5.53566,47.0944 5.36899,47.7611 5.5,48.5C 4.16667,47.8333 3.16667,46.8333 2.5,45.5C 3.23891,45.631 3.90558,45.4643 4.5,45C 18.7552,31.2476 32.4218,17.081 45.5,2.5 Z"/></g>
<g><path style="opacity:0.997" fill="#feac23" d="M 48.5,5.5 C 49.1667,5.5 49.5,5.83333 49.5,6.5C 34.8333,20.5 20.5,34.8333 6.5,49.5C 5.83333,49.5 5.5,49.1667 5.5,48.5C 5.36899,47.7611 5.53566,47.0944 6,46.5C 19.7524,32.2448 33.919,18.5782 48.5,5.5 Z"/></g>
<g><path style="opacity:0.994" fill="#fda522" d="M 49.5,6.5 C 50.1667,6.5 50.5,6.83333 50.5,7.5C 36.5,22.1667 22.1667,36.5 7.5,50.5C 6.83333,50.5 6.5,50.1667 6.5,49.5C 20.5,34.8333 34.8333,20.5 49.5,6.5 Z"/></g>
<g><path style="opacity:0.997" fill="#fe9f22" d="M 50.5,7.5 C 51.5,7.83333 52.1667,8.5 52.5,9.5C 37.8333,23.5 23.5,37.8333 9.5,52.5C 8.5,52.1667 7.83333,51.5 7.5,50.5C 22.1667,36.5 36.5,22.1667 50.5,7.5 Z"/></g>
<g><path style="opacity:0.814" fill="#ef8c00" d="M 84.5,14.5 C 84.5,15.1667 84.5,15.8333 84.5,16.5C 82.1862,18.4773 79.8528,20.4773 77.5,22.5C 74.8333,20.5 72.5,18.1667 70.5,15.5C 72.5,12.8333 74.8333,10.5 77.5,8.5C 79.8528,10.5227 82.1862,12.5227 84.5,14.5 Z"/></g>
<g><path style="opacity:0.994" fill="#fd9921" d="M 52.5,9.5 C 53.1667,9.5 53.5,9.83333 53.5,10.5C 39.5,25.1667 25.1667,39.5 10.5,53.5C 9.83333,53.5 9.5,53.1667 9.5,52.5C 23.5,37.8333 37.8333,23.5 52.5,9.5 Z"/></g>
<g><path style="opacity:0.988" fill="#fd9220" d="M 53.5,10.5 C 54.1667,10.5 54.5,10.8333 54.5,11.5C 47.1667,19.8333 39.8333,28.1667 32.5,36.5C 30.5,38.1667 28.5,39.8333 26.5,41.5C 21.7757,46.2294 16.7757,50.5627 11.5,54.5C 10.8333,54.5 10.5,54.1667 10.5,53.5C 25.1667,39.5 39.5,25.1667 53.5,10.5 Z"/></g>
<g><path style="opacity:0.996" fill="#fd8d20" d="M 54.5,11.5 C 55.8333,12.1667 56.8333,13.1667 57.5,14.5C 49.1667,21.8333 40.8333,29.1667 32.5,36.5C 39.8333,28.1667 47.1667,19.8333 54.5,11.5 Z"/></g>
<g><path style="opacity:1" fill="#fd861f" d="M 57.5,14.5 C 50.1667,22.8333 42.8333,31.1667 35.5,39.5C 34.1667,38.8333 33.1667,37.8333 32.5,36.5C 40.8333,29.1667 49.1667,21.8333 57.5,14.5 Z"/></g>
<g><path style="opacity:0.944" fill="#fd7f1f" d="M 57.5,14.5 C 58.8333,15.1667 59.8333,16.1667 60.5,17.5C 52.5,25.1667 44.5,32.8333 36.5,40.5C 35.8333,40.5 35.5,40.1667 35.5,39.5C 42.8333,31.1667 50.1667,22.8333 57.5,14.5 Z"/></g>
<g><path style="opacity:0.995" fill="#fb791e" d="M 60.5,17.5 C 61.1667,17.5 61.5,17.8333 61.5,18.5C 53.5,26.1667 45.5,33.8333 37.5,41.5C 36.8333,41.5 36.5,41.1667 36.5,40.5C 44.5,32.8333 52.5,25.1667 60.5,17.5 Z"/></g>
<g><path style="opacity:0.994" fill="#fb731d" d="M 61.5,18.5 C 62.1667,18.5 62.5,18.8333 62.5,19.5C 55.1123,27.8894 47.1123,35.5561 38.5,42.5C 37.8333,42.5 37.5,42.1667 37.5,41.5C 45.5,33.8333 53.5,26.1667 61.5,18.5 Z"/></g>
<g><path style="opacity:0.969" fill="#fb6d1d" d="M 62.5,19.5 C 63.5,19.8333 64.1667,20.5 64.5,21.5C 56.1106,28.8877 48.4439,36.8877 41.5,45.5C 40.1667,44.8333 39.1667,43.8333 38.5,42.5C 47.1123,35.5561 55.1123,27.8894 62.5,19.5 Z"/></g>
<g><path style="opacity:0.808" fill="#fb681c" d="M 64.5,21.5 C 57.8484,29.8327 50.1817,37.8327 41.5,45.5C 48.4439,36.8877 56.1106,28.8877 64.5,21.5 Z"/></g>
<g><path style="opacity:0.638" fill="#fc4d1b" d="M 72.5,29.5 C 57.919,42.5782 43.7524,56.2448 30,70.5C 29.5357,71.0944 29.369,71.7611 29.5,72.5C 28.1667,71.8333 27.1667,70.8333 26.5,69.5C 31.774,65.8953 36.4407,61.562 40.5,56.5C 50.5794,47.9247 60.2461,38.758 69.5,29C 70.7494,28.2599 71.7494,28.4265 72.5,29.5 Z"/></g>
<g><path style="opacity:0.997" fill="#fb4819" d="M 72.5,29.5 C 59.4218,44.081 45.7552,58.2476 31.5,72C 30.9056,72.4643 30.2389,72.631 29.5,72.5C 29.369,71.7611 29.5357,71.0944 30,70.5C 43.7524,56.2448 57.919,42.5782 72.5,29.5 Z"/></g>
<g><path style="opacity:0.968" fill="#fa4119" d="M 72.5,29.5 C 73.5,29.8333 74.1667,30.5 74.5,31.5C 60.5,46.1667 46.1667,60.5 31.5,74.5C 30.5,74.1667 29.8333,73.5 29.5,72.5C 30.2389,72.631 30.9056,72.4643 31.5,72C 45.7552,58.2476 59.4218,44.081 72.5,29.5 Z"/></g>
<g><path style="opacity:1" fill="#fa3c19" d="M 74.5,31.5 C 75.5,31.8333 76.1667,32.5 76.5,33.5C 61.8333,47.5 47.5,61.8333 33.5,76.5C 32.5,76.1667 31.8333,75.5 31.5,74.5C 46.1667,60.5 60.5,46.1667 74.5,31.5 Z"/></g>
<g><path style="opacity:0.994" fill="#fa3518" d="M 76.5,33.5 C 77.1667,33.5 77.5,33.8333 77.5,34.5C 63.5,49.1667 49.1667,63.5 34.5,77.5C 33.8333,77.5 33.5,77.1667 33.5,76.5C 47.5,61.8333 61.8333,47.5 76.5,33.5 Z"/></g>
<g><path style="opacity:0.997" fill="#fa2f17" d="M 77.5,34.5 C 78.5,34.8333 79.1667,35.5 79.5,36.5C 65.3681,50.1314 51.3681,63.9648 37.5,78C 36.9056,78.4643 36.2389,78.631 35.5,78.5C 34.8333,78.5 34.5,78.1667 34.5,77.5C 49.1667,63.5 63.5,49.1667 77.5,34.5 Z"/></g>
<g><path style="opacity:0.994" fill="#fa2916" d="M 79.5,36.5 C 80.1667,36.5 80.5,36.8333 80.5,37.5C 66.5,52.1667 52.1667,66.5 37.5,80.5C 36.5,80.1667 35.8333,79.5 35.5,78.5C 36.2389,78.631 36.9056,78.4643 37.5,78C 51.3681,63.9648 65.3681,50.1314 79.5,36.5 Z"/></g>
<g><path style="opacity:0.996" fill="#f92216" d="M 80.5,37.5 C 81.1667,37.5 81.5,37.8333 81.5,38.5C 68.4218,53.081 54.7552,67.2476 40.5,81C 39.9056,81.4643 39.2389,81.631 38.5,81.5C 37.8333,81.5 37.5,81.1667 37.5,80.5C 52.1667,66.5 66.5,52.1667 80.5,37.5 Z"/></g>
<g><path style="opacity:0.994" fill="#f91d15" d="M 81.5,38.5 C 82.5,38.8333 83.1667,39.5 83.5,40.5C 69.5,55.1667 55.1667,69.5 40.5,83.5C 39.5,83.1667 38.8333,82.5 38.5,81.5C 39.2389,81.631 39.9056,81.4643 40.5,81C 54.7552,67.2476 68.4218,53.081 81.5,38.5 Z"/></g>
<g><path style="opacity:0.683" fill="#f91614" d="M 83.5,40.5 C 83.8333,40.5 84.1667,40.5 84.5,40.5C 84.5,41.1667 84.5,41.8333 84.5,42.5C 70.1667,56.1667 56.1667,70.1667 42.5,84.5C 41.8333,84.5 41.1667,84.5 40.5,84.5C 40.5,84.1667 40.5,83.8333 40.5,83.5C 55.1667,69.5 69.5,55.1667 83.5,40.5 Z"/></g>
<g><path style="opacity:0.995" fill="#fd8d20" d="M 26.5,41.5 C 26.8333,42.1667 27.1667,42.8333 27.5,43.5C 22.438,47.5593 18.1047,52.226 14.5,57.5C 13.1667,56.8333 12.1667,55.8333 11.5,54.5C 16.7757,50.5627 21.7757,46.2294 26.5,41.5 Z"/></g>
<g><path style="opacity:1" fill="#fc861f" d="M 27.5,43.5 C 28.1667,43.5 28.5,43.8333 28.5,44.5C 24.4407,49.562 19.774,53.8953 14.5,57.5C 18.1047,52.226 22.438,47.5593 27.5,43.5 Z"/></g>
<g><path style="opacity:0.902" fill="#fd7f1f" d="M 28.5,44.5 C 29.5,44.8333 30.1667,45.5 30.5,46.5C 26.1667,51.1667 21.8333,55.8333 17.5,60.5C 16.1667,59.8333 15.1667,58.8333 14.5,57.5C 19.774,53.8953 24.4407,49.562 28.5,44.5 Z"/></g>
<g><path style="opacity:0.97" fill="#fc791e" d="M 30.5,46.5 C 31.1667,46.5 31.5,46.8333 31.5,47.5C 27.1667,52.1667 22.8333,56.8333 18.5,61.5C 17.8333,61.5 17.5,61.1667 17.5,60.5C 21.8333,55.8333 26.1667,51.1667 30.5,46.5 Z"/></g>
<g><path style="opacity:0.961" fill="#fc731d" d="M 31.5,47.5 C 32.5,47.8333 33.1667,48.5 33.5,49.5C 28.8333,53.8333 24.1667,58.1667 19.5,62.5C 18.8333,62.5 18.5,62.1667 18.5,61.5C 22.8333,56.8333 27.1667,52.1667 31.5,47.5 Z"/></g>
<g><path style="opacity:0.936" fill="#fc6e1d" d="M 33.5,49.5 C 34.1667,49.5 34.5,49.8333 34.5,50.5C 30.1667,55.1667 25.8333,59.8333 21.5,64.5C 20.5,64.1667 19.8333,63.5 19.5,62.5C 24.1667,58.1667 28.8333,53.8333 33.5,49.5 Z"/></g>
<g><path style="opacity:0.97" fill="#fc671d" d="M 34.5,50.5 C 35.5,50.8333 36.1667,51.5 36.5,52.5C 32.4407,57.562 27.774,61.8953 22.5,65.5C 21.8333,65.5 21.5,65.1667 21.5,64.5C 25.8333,59.8333 30.1667,55.1667 34.5,50.5 Z"/></g>
<g><path style="opacity:0.908" fill="#fc601c" d="M 36.5,52.5 C 37.1667,52.5 37.5,52.8333 37.5,53.5C 33.1667,58.1667 28.8333,62.8333 24.5,67.5C 23.5,67.1667 22.8333,66.5 22.5,65.5C 27.774,61.8953 32.4407,57.562 36.5,52.5 Z"/></g>
<g><path style="opacity:0.991" fill="#fb5b1c" d="M 37.5,53.5 C 38.5,53.8333 39.1667,54.5 39.5,55.5C 34.8333,59.8333 30.1667,64.1667 25.5,68.5C 24.8333,68.5 24.5,68.1667 24.5,67.5C 28.8333,62.8333 33.1667,58.1667 37.5,53.5 Z"/></g>
<g><path style="opacity:0.995" fill="#fb541b" d="M 39.5,55.5 C 40.1667,55.5 40.5,55.8333 40.5,56.5C 36.4407,61.562 31.774,65.8953 26.5,69.5C 25.8333,69.5 25.5,69.1667 25.5,68.5C 30.1667,64.1667 34.8333,59.8333 39.5,55.5 Z"/></g>
</svg>
