<svg version="1.1" xml:space="preserve" xmlns:xlink="http://www.w3.org/1999/xlink" xmlns="http://www.w3.org/2000/svg" width="24" height="24" viewBox="0 0 24 24"><defs id="defs18"><linearGradient x1="85.915" y1="1.463" x2="148.199" y2="90.951" id="c" gradientTransform="scale(.91408 1.094)" gradientUnits="userSpaceOnUse"><stop stop-color="#70A1FF" offset="0%" id="stop1"/><stop stop-color="#645BFF" offset="100%" id="stop2"/></linearGradient><linearGradient x1="191.497" y1="16.331" x2="191.497" y2="94.748" id="d" gradientTransform="scale(.70393 1.4206)" gradientUnits="userSpaceOnUse"><stop stop-color="#C8B9FF" offset="0%" id="stop3"/><stop stop-color="#83A4FF" offset="100%" id="stop4"/></linearGradient><linearGradient x1="103.426" y1="135.692" x2="78.254" y2="165.899" id="e" gradientTransform="scale(1.28555 .77788)" gradientUnits="userSpaceOnUse"><stop stop-color="#9852FF" offset="0%" id="stop5"/><stop stop-color="#2A58D6" offset="100%" id="stop6"/></linearGradient><linearGradient x1="63.513" y1="128.278" x2="63.513" y2="209.804" id="f" gradientTransform="scale(1.28793 .77644)" gradientUnits="userSpaceOnUse"><stop stop-color="#C8B9FF" offset="0%" id="stop7"/><stop stop-color="#83A4FF" offset="100%" id="stop8"/></linearGradient><linearGradient x1="48.648" y1="37.937" x2="67.639" y2="114.516" id="g" gradientTransform="scale(.70515 1.41814)" gradientUnits="userSpaceOnUse"><stop stop-color="#70A1FF" offset="0%" id="stop9"/><stop stop-color="#645BFF" offset="100%" id="stop10"/></linearGradient><linearGradient x1="58.27" y1="25.534" x2="35.918" y2="112.847" id="h" gradientTransform="scale(.95633 1.04566)" gradientUnits="userSpaceOnUse"><stop stop-color="#9852FF" offset="0%" id="stop11"/><stop stop-color="#2A58D6" offset="100%" id="stop12"/></linearGradient><linearGradient x1="44.252" y1="16.177" x2="44.252" y2="86.852" id="i" gradientTransform="scale(1.57056 .63671)" gradientUnits="userSpaceOnUse"><stop stop-color="#C8B9FF" offset="0%" id="stop13"/><stop stop-color="#83A4FF" offset="100%" id="stop14"/></linearGradient><linearGradient x1="54.387" y1="33.934" x2="113.51" y2="122.315" id="k" gradientTransform="scale(1.01297 .9872)" gradientUnits="userSpaceOnUse"><stop stop-color="#F1FCFF" offset="0%" id="stop15"/><stop stop-color="#B5D4FF" offset="100%" id="stop16"/></linearGradient><linearGradient x1="46.419" y1="90.789" x2="113.72" y2="111.114" id="l" gradientTransform="scale(1.13301 .8826)" gradientUnits="userSpaceOnUse"><stop stop-color="#591D7D" offset="0%" id="stop17"/><stop stop-color="#404CF8" offset="100%" id="stop18"/></linearGradient><path d="M91.3 3.6 141.7 28c4.8 2.3 8.3 6.7 9.4 11.8l12.5 54.5c1.2 5.2 0 10.6-3.4 14.8l-34.8 43.7a17.5 17.5 0 0 1-13.7 6.5H55.8c-5.3 0-10.3-2.4-13.6-6.5L7.3 109A17.5 17.5 0 0 1 4 94.2l12.4-54.5c1.2-5.1 4.7-9.5 9.4-11.8L76.2 3.6a17.5 17.5 0 0 1 15.1 0z" id="a"/><path id="j" d="m83.3 33.5 41 19.7 10.1 44.4-28.3 35.5H60.6L32.2 97.6l10.2-44.4Z"/></defs><g fill="none" fill-rule="evenodd" id="g26"><g transform="translate(2.603 2.962) scale(.11214)" id="g25"><mask id="b" fill="#fff"><use xlink:href="#a" id="use18"/></mask><g mask="url(#b)" id="g24"><path d="m85 1.6 47.9 21.6 15 60.3-12.8 16L121 40c-.4-2-1.7-3.7-3.6-4.6L66.1 10.3Z" fill="url(#c)" transform="rotate(.2 547.1 -153.3)" id="path18" style="fill:url(#c)"/><path d="m146.3 81.2-13.4-58 22.3 5.9 7.2 56.1-37 49.4h-18.2L145 87a6.8 6.8 0 0 0 1.3-5.8z" fill="url(#d)" transform="rotate(.2 547.1 -153.3)" id="path19" style="fill:url(#d)"/><path d="m166.7 103.6-35 45.6-59.8.2-11.3-14.6 61.3-.2c2.2 0 4.2-1 5.5-2.8l35-46.6z" fill="url(#e)" transform="rotate(.2 547.1 -153.3)" id="path20" style="fill:url(#e)"/><path d="m76 148.6 58.3-.2-14.6 14.5-55.1-.4-.9-3-34.4-43.7 4-16.2 37.4 46.5a6.8 6.8 0 0 0 5.3 2.5z" fill="url(#f)" transform="rotate(.2 547.1 -153.3)" id="path21" style="fill:url(#f)"/><path d="m31.8 118.4 36.2 44H46.6L14 118l13.3-56.2 16.3-8-13.1 58.7c-.5 2 0 4.2 1.4 5.9z" fill="url(#g)" transform="rotate(.2 547.1 -153.3)" id="path22" style="fill:url(#g)"/><path d="m1.2 104.2 12.8-53 53.4-24.5 17.3 8.4-54.1 26.2a6.8 6.8 0 0 0-3.7 4.5L14 118l-3.2-1-9.5-12.8Z" fill="url(#h)" transform="rotate(.2 547.1 -153.3)" id="path23" style="fill:url(#h)"/><path d="m66 10.3 51.6 25c1.8 1 3.1 2.6 3.6 4.6l3.8 15.4-54.8-27c-1.9-.9-4-.9-5.9 0L14 51.3l3.3-18.4 48.8-22.6Z" fill="url(#i)" transform="rotate(.2 547.1 -153.3)" id="path24" style="fill:url(#i)"/></g><mask id="m" fill="#fff"><use xlink:href="#j" id="use24"/></mask><use fill="url(#k)" xlink:href="#j" id="use25" style="fill:url(#k)"/><path d="M99.4 60.2 76.9 97.9a1.6 1.6 0 0 1-2.5.3l-10-10.7c-.2-.4-.7-.6-1.1-.6H44.7a1.6 1.6 0 0 0-1.2 2.7L66 118.2c.3.4.8.6 1.3.6H85c.6 0 1-.3 1.4-.8l32.7-56.2a1.6 1.6 0 0 0-1.4-2.4h-17c-.6 0-1.1.3-1.4.8z" fill="url(#l)" mask="url(#m)" id="path25" style="fill:url(#l)"/></g></g></svg>