<svg version="1.1" xmlns="http://www.w3.org/2000/svg" width="24" height="24" viewBox="0 0 24 24"><g id="g11" transform="translate(-12.3 2.48) scale(.0431)" fill="#ad1f2c"><path d="M554.97 201.66a.24.24 0 0 0-.06.36l25.49 29.68a.59.58-38.2 0 0 .79.09c14.2-10.35 29.56-20.01 45.78-26.68q20.84-8.56 41.52-5.23 27.64 4.46 43.05 25.57c14.6 20 14.89 46.45.72 66.58-12.27 17.43-33.05 25.31-54.84 27.12q-17.95 1.48-34.01-4.88c-16.84-6.67-33.14-18.74-46.78-31.74q-.42-.41-.88-.06c-19.08 13.94-38.76 27.08-58.34 35.94q-16.76 7.59-32.86 9.88c-12.68 1.79-25.62.57-38.61-2.33-27.55-6.13-53.95-22.18-69.66-45.98a.48.48 0 0 1 .11-.64l11.79-8.71q.49-.36.95.03 33.49 28.9 78.34 27.31c12.14-.44 24.34-5.32 34.93-11.02 16.44-8.85 31.72-19.96 46.68-31.39a.25.24 50.3 0 0 .03-.36l-28.89-31.83q-.33-.37-.75-.12c-20.6 12.42-43.47 24.37-66.52 28.36q-13.66 2.37-28.12-.17c-25.38-4.47-45.56-22.18-51.69-47.33-6.75-27.66 6.93-54.04 31.76-66.68q16.05-8.17 37.72-9.1 14.38-.62 27.32 3.98c21.28 7.56 40.25 23.05 56.57 39.39q.41.41.89.1 20.65-13.15 41.89-24.65c18.37-9.94 37.27-17.97 57.46-21.71q18.3-3.4 36.2-4.56 2.67-.17 4.86-1.25c17.09-8.38 38.22-9.09 57.04-3.94 5.03 1.38 9.83 1.66 14.83 2.54 4.35.76 6.4 5.06 10.41 6.8 9.81 4.28 24.77 13.44 22.09 26.45a10.04 10.04 0 0 1-3.23 5.67q-6.94 6.4-14.3 13.3-.82.77-.55-.33 1.53-6.06 1.04-12.11c-.35-4.29-2.96-5.32-6.98-5.38q-11.59-.19-22.62 3.32-3.39 1.07-6.14 3.24a1.56 1.56 0 0 0-.42 1.93q7.74 15.17 22.86 24.09 1.07.62-.13.93c-15.33 3.86-30.15-5.87-40.29-16.42a29.99 29.99 0 0 0-17.34-8.98q-4.73-.71-10.17-.46-27.68 1.24-46.04 5.69-15.75 3.82-35.29 14.02-18.81 9.82-37.61 21.67zm162.33-70.81c2.41 5.52 7.22 9.16 13.26 7.28q3.32-1.04 5.98-2.97a.56.56 0 0 0-.07-.95q-8.79-4.68-18.84-3.91-.56.04-.33.55zm-252.57 42.57c-5.02-2.79-10.87-4.95-16.24-5.23q-11.15-.56-21.63 3.04c-24.06 8.27-18.27 35.69 4.16 40.74 10.89 2.45 21.88-.38 32.14-4.59q14.64-6 27.71-13.69a.39.38-38.6 0 0 .07-.61q-12.83-12.24-26.21-19.66zm178.96 64.31c-11.83 4.82-22.42 11.61-33.39 19.46q-1.42 1.01-2.77 2.06-.51.4.03.76.8.52 1.52 1.2 12.45 11.58 25.98 18.32 6.42 3.2 12.9 3.63c14.58.96 37.01-3.37 39.5-21.56q.72-5.26-1.52-10.58c-4.06-9.63-12.92-14.78-23.15-16.02q-9.56-1.16-19.1 2.73z" id="path1"/><path d="M753.9 181.33q.37-.89.85-1.69a.27.27 0 0 1 .48.03q4.1 9.53 5.93 19.2c1.69 8.88-14.43 8.77-12.82.7q1.86-9.35 5.56-18.24z" id="path2"/><path d="m364.58 260.14-9.53-22.99a.7.7 0 0 1 1.17-.74l16.75 18.41a.7.7 0 0 1-.15 1.06l-7.22 4.59a.7.7 0 0 1-1.02-.33z" id="path3"/><path d="m379.47 261.94-9.88 6.9a.37.37 0 0 1-.53-.11l-2.51-4.01a.37.37 0 0 1 .1-.49l8.86-6.37a.37.37 0 0 1 .47.04l3.53 3.48a.37.37 0 0 1-.04.56z" id="path4"/><path d="m385.72 268.14-11.24 7.93a.34.34 0 0 1-.48-.1l-2.59-4.04a.34.34 0 0 1 .09-.46l10.3-7.37a.34.34 0 0 1 .43.03l3.53 3.49a.34.34 0 0 1-.04.52z" id="path5"/></g></svg>