<svg xml:space="preserve" version="1.1" xmlns="http://www.w3.org/2000/svg" width="24" height="24" viewBox="0 0 24 24"><defs id="defs6"><clipPath id="clipPath18" clipPathUnits="userSpaceOnUse"><path id="path16" d="M0 192h192V0H0Z"/></clipPath><clipPath id="clipPath46" clipPathUnits="userSpaceOnUse"><path id="path44" d="M46 146h9V47h-9z"/></clipPath><clipPath id="clipPath62" clipPathUnits="userSpaceOnUse"><path id="path60" d="M144 110h28V47h-28z"/></clipPath><clipPath id="clipPath78" clipPathUnits="userSpaceOnUse"><path id="path76" d="M46 146h94v-5H46Z"/></clipPath><clipPath id="clipPath94" clipPathUnits="userSpaceOnUse"><path id="path92" d="M20 172h152V20H20Z"/></clipPath><clipPath id="clipPath98" clipPathUnits="userSpaceOnUse"><path id="path96" d="m171 110-31 31-26 26c-2.271 2.28-7 5-11 5-3.437 0-6.812-.688-9-2l-48-24-24-50c-.857-1.818-2-4.979-2-7 0-4.365 1.92-8.834 5-12l23.961-23.787c.573-.699 1.245-1.416 2.039-2.213l1-1 3-3 26-26 1-1h63v27h27v62Z"/></clipPath><radialGradient id="radialGradient110" spreadMethod="pad" gradientTransform="scale(76 -76) rotate(-45 -.893 -2.156)" gradientUnits="userSpaceOnUse" r="1" cy="0" cx="0" fy="0" fx="0"><stop id="stop104" offset="0" style="stop-opacity:.09999237;stop-color:#fff"/><stop id="stop106" offset=".578" style="stop-opacity:0;stop-color:#fff"/><stop id="stop108" offset="1" style="stop-opacity:0;stop-color:#fff"/></radialGradient><radialGradient id="radialGradient130" spreadMethod="pad" gradientTransform="scale(76 -76) rotate(-45 -.893 -2.156)" gradientUnits="userSpaceOnUse" r="1" cy="0" cx="0" fy="0" fx="0"><stop id="stop124" offset="0" style="stop-opacity:1;stop-color:#fff"/><stop id="stop126" offset=".578" style="stop-opacity:1;stop-color:#fff"/><stop id="stop128" offset="1" style="stop-opacity:1;stop-color:#fff"/></radialGradient><mask id="mask112" height="1" width="1" y="0" x="0" maskUnits="userSpaceOnUse"><g id="g122"><g id="g120"><g id="g118"><g id="g116"><path id="path114" style="fill:url(#radialGradient110);stroke:none" d="M-32768 32767h65535v-65535h-65535Z"/></g></g></g></g></mask></defs><g transform="matrix(.11842 0 0 -.11842 .632 23.368)" id="g10"><g id="g12"><g clip-path="url(#clipPath18)" id="g14"><g transform="translate(51 51)" id="g20"><path id="path22" style="fill:#01579b;fill-opacity:1;fill-rule:nonzero;stroke:none" d="m0 0-26 26c-3.08 3.166-5 7.634-5 12 0 2.021 1.143 5.182 2 7l24 50z"/></g><g transform="translate(140 141)" id="g24"><path id="path26" style="fill:#40c4ff;fill-opacity:1;fill-rule:nonzero;stroke:none" d="m0 0-26 26c-2.271 2.28-7 5-11 5-3.438 0-6.813-.688-9-2L-94 5Z"/></g><g transform="translate(82 20)" id="g28"><path id="path30" style="fill:#40c4ff;fill-opacity:1;fill-rule:nonzero;stroke:none" d="M0 0h63v27L16 42l-43-15Z"/></g><g transform="translate(46 65)" id="g32"><path id="path34" style="fill:#29b6f6;fill-opacity:1;fill-rule:nonzero;stroke:none" d="M0 0c0-8.021 1.005-9.989 5-14l4-4h90L55 32 0 81Z"/></g><g transform="translate(126 146)" id="g36"><path id="path38" style="fill:#01579b;fill-opacity:1;fill-rule:nonzero;stroke:none" d="M0 0h-80l99-99h27v62L14-5C9.506-.488 5.514 0 0 0"/></g><g id="g40"><g id="g54"><g style="opacity:.199997" id="g52" clip-path="url(#clipPath46)"><g id="g50" transform="translate(52 50)"><path id="path48" style="fill:#fff;fill-opacity:1;fill-rule:nonzero;stroke:none" d="M0 0c-4 4.016-5 7.973-5 15v80l-1 1V15c0-7.027 0-8.977 6-15l3-3z"/></g></g></g></g><g id="g56"><g id="g70"><g style="opacity:.199997" id="g68" clip-path="url(#clipPath62)"><g id="g66" transform="translate(171 110)"><path id="path64" style="fill:#263238;fill-opacity:1;fill-rule:nonzero;stroke:none" d="M0 0v-62h-27l1-1H1v62z"/></g></g></g></g><g id="g72"><g id="g86"><g style="opacity:.199997" id="g84" clip-path="url(#clipPath78)"><g id="g82" transform="translate(140 141)"><path id="path80" style="fill:#fff;fill-opacity:1;fill-rule:nonzero;stroke:none" d="M0 0c-4.957 4.957-9.023 5-15 5h-79l1-1h78c2.988 0 10.518.5 15-4"/></g></g></g></g><g id="g88"><g id="g148"><g style="opacity:.199997" id="g146" clip-path="url(#clipPath94)"><g id="g144"><g id="g142" clip-path="url(#clipPath98)"><g id="g140"><g id="g138" mask="url(#mask112)"><g id="g136"><path id="path134" style="fill:url(#radialGradient130);stroke:none" d="m171 110-31 31-26 26c-2.271 2.28-7 5-11 5-3.437 0-6.812-.688-9-2l-48-24-24-50c-.857-1.818-2-4.979-2-7 0-4.365 1.92-8.834 5-12l23.961-23.787c.573-.699 1.245-1.416 2.039-2.213l1-1 3-3 26-26 1-1h63v27h27v62Z"/></g></g></g></g></g></g></g></g></g></g></g></svg>