<?xml version="1.0" encoding="UTF-8" standalone="no"?>
<svg
   xmlns:dc="http://purl.org/dc/elements/1.1/"
   xmlns:cc="http://creativecommons.org/ns#"
   xmlns:rdf="http://www.w3.org/1999/02/22-rdf-syntax-ns#"
   xmlns:svg="http://www.w3.org/2000/svg"
   xmlns="http://www.w3.org/2000/svg"
   viewBox="0 0 256 256"
   height="256"
   width="256"
   xml:space="preserve"
   id="svg2"
   version="1.1"><metadata
     id="metadata8"><rdf:RDF><cc:Work
         rdf:about=""><dc:format>image/svg+xml</dc:format><dc:type
           rdf:resource="http://purl.org/dc/dcmitype/StillImage" /></cc:Work></rdf:RDF></metadata><defs
     id="defs6"><clipPath
       id="clipPath18"
       clipPathUnits="userSpaceOnUse"><path
         id="path16"
         d="M 0,192 H 192 V 0 H 0 Z" /></clipPath><clipPath
       id="clipPath46"
       clipPathUnits="userSpaceOnUse"><path
         id="path44"
         d="m 46,146 h 9 V 47 h -9 z" /></clipPath><clipPath
       id="clipPath62"
       clipPathUnits="userSpaceOnUse"><path
         id="path60"
         d="m 144,110 h 28 V 47 h -28 z" /></clipPath><clipPath
       id="clipPath78"
       clipPathUnits="userSpaceOnUse"><path
         id="path76"
         d="m 46,146 h 94 v -5 H 46 Z" /></clipPath><clipPath
       id="clipPath94"
       clipPathUnits="userSpaceOnUse"><path
         id="path92"
         d="M 20,172 H 172 V 20 H 20 Z" /></clipPath><clipPath
       id="clipPath98"
       clipPathUnits="userSpaceOnUse"><path
         id="path96"
         d="m 171,110 -31,31 -26,26 c -2.271,2.28 -7,5 -11,5 -3.437,0 -6.812,-0.688 -9,-2 L 46,146 22,96 c -0.857,-1.818 -2,-4.979 -2,-7 0,-4.365 1.92,-8.834 5,-12 L 48.961,53.213 C 49.534,52.514 50.206,51.797 51,51 l 1,-1 3,-3 26,-26 1,-1 h 62 1 v 27 h 27 V 47.071 109 Z" /></clipPath><radialGradient
       id="radialGradient110"
       spreadMethod="pad"
       gradientTransform="matrix(53.740116,53.740116,53.740116,-53.740116,96,96)"
       gradientUnits="userSpaceOnUse"
       r="1"
       cy="0"
       cx="0"
       fy="0"
       fx="0"><stop
         id="stop104"
         offset="0"
         style="stop-opacity:0.09999237;stop-color:#ffffff" /><stop
         id="stop106"
         offset="0.57776751"
         style="stop-opacity:0;stop-color:#ffffff" /><stop
         id="stop108"
         offset="1"
         style="stop-opacity:0;stop-color:#ffffff" /></radialGradient><mask
       id="mask112"
       height="1"
       width="1"
       y="0"
       x="0"
       maskUnits="userSpaceOnUse"><g
         id="g122"><g
           id="g120"><g
             id="g118"><g
               id="g116"><path
                 id="path114"
                 style="fill:url(#radialGradient110);stroke:none"
                 d="M -32768,32767 H 32767 V -32768 H -32768 Z" /></g></g></g></g></mask><radialGradient
       id="radialGradient130"
       spreadMethod="pad"
       gradientTransform="matrix(53.740116,53.740116,53.740116,-53.740116,96,96)"
       gradientUnits="userSpaceOnUse"
       r="1"
       cy="0"
       cx="0"
       fy="0"
       fx="0"><stop
         id="stop124"
         offset="0"
         style="stop-opacity:1;stop-color:#ffffff" /><stop
         id="stop126"
         offset="0.57776751"
         style="stop-opacity:1;stop-color:#ffffff" /><stop
         id="stop128"
         offset="1"
         style="stop-opacity:1;stop-color:#ffffff" /></radialGradient></defs><g
     transform="matrix(1.3333333,0,0,-1.3333333,0,256)"
     id="g10"><g
       id="g12"><g
         clip-path="url(#clipPath18)"
         id="g14"><g
           transform="translate(51,51)"
           id="g20"><path
             id="path22"
             style="fill:#01579b;fill-opacity:1;fill-rule:nonzero;stroke:none"
             d="m 0,0 -26,26 c -3.08,3.166 -5,7.634 -5,12 0,2.021 1.143,5.182 2,7 l 24,50 z" /></g><g
           transform="translate(140,141)"
           id="g24"><path
             id="path26"
             style="fill:#40c4ff;fill-opacity:1;fill-rule:nonzero;stroke:none"
             d="m 0,0 -26,26 c -2.271,2.28 -7,5 -11,5 -3.438,0 -6.813,-0.688 -9,-2 L -94,5 Z" /></g><g
           transform="translate(82,20)"
           id="g28"><path
             id="path30"
             style="fill:#40c4ff;fill-opacity:1;fill-rule:nonzero;stroke:none"
             d="M 0,0 H 63 V 27 L 16,42 -27,27 Z" /></g><g
           transform="translate(46,65)"
           id="g32"><path
             id="path34"
             style="fill:#29b6f6;fill-opacity:1;fill-rule:nonzero;stroke:none"
             d="m 0,0 c 0,-8.021 1.005,-9.989 5,-14 l 4,-4 H 99 L 55,32 0,81 Z" /></g><g
           transform="translate(126,146)"
           id="g36"><path
             id="path38"
             style="fill:#01579b;fill-opacity:1;fill-rule:nonzero;stroke:none"
             d="m 0,0 h -80 l 99,-99 h 27 v 62 L 14,-5 C 9.506,-0.488 5.514,0 0,0" /></g><g
           id="g40"><g
             id="g42" /><g
             id="g54"><g
               style="opacity:0.19999701"
               id="g52"
               clip-path="url(#clipPath46)"><g
                 id="g50"
                 transform="translate(52,50)"><path
                   id="path48"
                   style="fill:#ffffff;fill-opacity:1;fill-rule:nonzero;stroke:none"
                   d="m 0,0 c -4,4.016 -5,7.973 -5,15 v 80 l -1,1 V 15 C -6,7.973 -6,6.023 0,0 l 3,-3 z" /></g></g></g></g><g
           id="g56"><g
             id="g58" /><g
             id="g70"><g
               style="opacity:0.19999701"
               id="g68"
               clip-path="url(#clipPath62)"><g
                 id="g66"
                 transform="translate(171,110)"><path
                   id="path64"
                   style="fill:#263238;fill-opacity:1;fill-rule:nonzero;stroke:none"
                   d="m 0,0 v -62 h -27 l 1,-1 H 1 v 62 z" /></g></g></g></g><g
           id="g72"><g
             id="g74" /><g
             id="g86"><g
               style="opacity:0.19999701"
               id="g84"
               clip-path="url(#clipPath78)"><g
                 id="g82"
                 transform="translate(140,141)"><path
                   id="path80"
                   style="fill:#ffffff;fill-opacity:1;fill-rule:nonzero;stroke:none"
                   d="m 0,0 c -4.957,4.957 -9.023,5 -15,5 h -79 l 1,-1 h 78 c 2.988,0 10.518,0.5 15,-4" /></g></g></g></g><g
           id="g88"><g
             id="g90" /><g
             id="g148"><g
               style="opacity:0.19999701"
               id="g146"
               clip-path="url(#clipPath94)"><g
                 id="g144"><g
                   id="g142"
                   clip-path="url(#clipPath98)"><g
                     id="g140"><g
                       id="g132" /><g
                       id="g138"
                       mask="url(#mask112)"><g
                         id="g136"><path
                           id="path134"
                           style="fill:url(#radialGradient130);stroke:none"
                           d="m 171,110 -31,31 -26,26 c -2.271,2.28 -7,5 -11,5 -3.437,0 -6.812,-0.688 -9,-2 L 46,146 22,96 c -0.857,-1.818 -2,-4.979 -2,-7 0,-4.365 1.92,-8.834 5,-12 L 48.961,53.213 C 49.534,52.514 50.206,51.797 51,51 l 1,-1 3,-3 26,-26 1,-1 h 62 1 v 27 h 27 V 47.071 109 Z" /></g></g></g></g></g></g></g></g></g></g></g></svg>